<svg width="105" height="108" viewBox="0 0 105 108" fill="none" xmlns="http://www.w3.org/2000/svg">
<rect x="11.5" y="16.5" width="93" height="91" fill="#F1F5F9" stroke="#F1F5F9"/>
<rect x="8.5" y="13.5" width="93" height="91" fill="#222222" stroke="#F1F5F9"/>
<path d="M89.5217 92L101 80V104H77L89.5217 92Z" fill="url(#paint0_linear_820_1046)"/>
<g clip-path="url(#clip0_820_1046)">
<path d="M81.9998 31.4004C82.5938 31.4004 83.1878 31.4004 83.7998 31.4004C83.809 31.9847 83.809 31.9847 83.8185 32.5808C83.8832 36.6198 83.952 40.6587 84.0231 44.6975C84.0492 46.2067 84.0742 47.7159 84.0981 49.225C84.1327 51.389 84.1709 53.5529 84.2099 55.7168C84.2199 56.3962 84.23 57.0755 84.2403 57.7755C84.2582 58.7124 84.2582 58.7124 84.2766 59.6682C84.2906 60.4976 84.2906 60.4976 84.3048 61.3438C84.2619 62.5929 84.2619 62.5929 84.9998 63.2004C85.0678 64.8297 85.0983 66.4432 85.1005 68.073C85.1035 68.8066 85.1035 68.8066 85.1066 69.555C85.1096 70.5916 85.111 71.6281 85.1109 72.6646C85.1122 74.2541 85.1231 75.8434 85.1345 77.4328C85.1363 78.4379 85.1375 79.443 85.138 80.448C85.1423 80.9256 85.1467 81.4031 85.1511 81.8951C85.137 85.2631 85.137 85.2631 83.7998 86.6004C81.9248 86.6754 81.9248 86.6754 80.1998 86.6004C79.197 84.8341 78.8334 83.4961 78.7513 81.4723C78.7281 80.9657 78.7049 80.4591 78.681 79.9371C78.6624 79.4135 78.6439 78.8899 78.6248 78.3504C78.6016 77.8175 78.5784 77.2846 78.5544 76.7355C78.498 75.4239 78.4466 74.1124 78.3998 72.8004C78.1747 73.1554 77.9496 73.5104 77.7177 73.8762C73.8265 79.8845 69.0916 84.4722 62.0005 86.3191C55.6733 87.4308 49.8341 86.5914 44.3873 83.1504C40.2918 80.2199 37.611 77.1887 35.1998 72.8004C35.191 73.1332 35.1823 73.4659 35.1732 73.8088C35.1284 75.3231 35.0705 76.8366 35.0123 78.3504C34.9987 78.874 34.9852 79.3976 34.9712 79.9371C34.8091 83.7999 34.8091 83.7999 33.7888 85.7519C32.7998 86.6004 32.7998 86.6004 30.9623 86.8254C29.1998 86.6004 29.1998 86.6004 27.9998 85.4004C27.8871 83.6065 27.8465 81.8692 27.8615 80.0754C27.8618 79.5472 27.862 79.0191 27.8623 78.4749C27.8641 77.3572 27.8689 76.2395 27.8763 75.1219C27.8872 73.4074 27.8886 71.6931 27.8884 69.9785C27.8914 68.8941 27.8949 67.8098 27.899 66.7254C27.8996 66.2104 27.9003 65.6954 27.901 65.1647C27.9301 61.5397 27.9301 61.5397 28.5998 60.2004C28.7375 58.8778 28.8462 57.552 28.9373 56.2254C29.0127 55.1557 29.0127 55.1557 29.0896 54.0645C29.1441 53.2407 29.1441 53.2407 29.1998 52.4004C28.8409 52.3509 28.482 52.3014 28.1123 52.2504C26.3536 51.6474 25.9327 51.0035 24.9998 49.4004C24.7954 47.5307 24.7954 47.5307 24.824 45.3598C24.8298 44.5825 24.8356 43.8052 24.8416 43.0043C24.8566 42.1863 24.8718 41.3684 24.8873 40.5504C24.8963 39.7231 24.9045 38.8957 24.9119 38.0684C24.9331 36.0455 24.9627 34.023 24.9998 32.0004C25.5938 32.0004 26.1878 32.0004 26.7998 32.0004C27.6195 33.6398 27.4973 34.9861 27.5263 36.8191C27.5433 37.5408 27.5604 38.2624 27.5779 39.0059C27.6091 40.5355 27.6357 42.0652 27.6576 43.5949C27.6761 44.3165 27.6947 45.0382 27.7138 45.7816C27.7257 46.4464 27.7376 47.1112 27.7499 47.7961C27.8323 48.3255 27.9148 48.8549 27.9998 49.4004C28.5938 49.7964 29.1878 50.1924 29.7998 50.6004C29.7998 44.6604 29.7998 38.7204 29.7998 32.6004C30.5918 32.6004 31.3838 32.6004 32.1998 32.6004C32.1998 38.5404 32.1998 44.4804 32.1998 50.6004C34.7344 49.119 34.7344 49.119 34.9273 47.1089C34.9461 46.105 34.9461 46.105 34.9654 45.0809C34.9847 44.3558 35.0041 43.6307 35.024 42.8836C35.0325 42.126 35.041 41.3684 35.0498 40.5879C35.0675 39.8233 35.0853 39.0588 35.1037 38.2711C35.1461 36.3808 35.1777 34.491 35.1998 32.6004C35.9918 32.6004 36.7838 32.6004 37.5998 32.6004C37.6697 35.2253 37.7122 37.8499 37.7498 40.4754C37.7699 41.2179 37.79 41.9604 37.8107 42.7254C37.877 48.896 37.877 48.896 36.5404 51.1207C35.1998 52.4004 35.1998 52.4004 32.7998 52.4004C32.9978 54.9744 33.1958 57.5484 33.3998 60.2004C33.6225 59.3341 33.8453 58.4679 34.0748 57.5754C36.1614 50.7357 40.2492 45.4444 46.5623 41.9754C52.6111 39.291 59.135 39.1348 65.3498 41.4129C70.0774 43.5191 73.4074 46.5906 76.5998 50.6004C76.7978 50.7984 76.9958 50.9964 77.1998 51.2004C77.1719 50.6342 77.1441 50.0681 77.1154 49.4848C76.9325 42.9787 77.5635 36.5521 81.9998 31.4004ZM80.7998 38.0004C79.6838 40.8345 79.4158 43.3869 79.4498 46.4004C79.4451 46.8119 79.4405 47.2233 79.4357 47.6473C79.4456 50.2556 79.8456 52.3771 80.7998 54.8004C80.9978 54.8004 81.1958 54.8004 81.3998 54.8004C81.3998 49.2564 81.3998 43.7124 81.3998 38.0004C81.2018 38.0004 81.0038 38.0004 80.7998 38.0004ZM40.6865 49.3934C36.5988 54.5913 35.1718 60.237 35.7998 66.8004C37.441 73.2209 40.6291 77.917 45.9998 81.8004C51.2413 84.6873 56.9826 84.9944 62.7904 83.8465C67.9196 82.2744 71.9366 79.0945 74.7529 74.5324C77.5784 69.0226 78.7877 64.04 77.4107 57.852C75.3639 51.6415 71.6453 46.9902 65.7998 44.0004C56.8031 40.2063 47.3807 42.2199 40.6865 49.3934ZM78.9998 56.6004C79.5998 57.8004 79.5998 57.8004 79.5998 57.8004L78.9998 56.6004ZM79.5998 57.8004C79.5998 58.7904 79.5998 59.7804 79.5998 60.8004C79.7978 60.8004 79.9958 60.8004 80.1998 60.8004C80.1998 59.8104 80.1998 58.8204 80.1998 57.8004C80.0018 57.8004 79.8038 57.8004 79.5998 57.8004ZM30.3998 62.0004C30.3998 69.3264 30.3998 76.6524 30.3998 84.2004C30.9938 84.2004 31.5878 84.2004 32.1998 84.2004C32.1998 76.8744 32.1998 69.5484 32.1998 62.0004C31.6058 62.0004 31.0118 62.0004 30.3998 62.0004ZM81.9998 63.8004C81.1825 64.4814 81.1825 64.4814 81.3316 66.2861C81.3317 67.1208 81.3352 67.9555 81.3412 68.7902C81.342 69.2289 81.3429 69.6675 81.3437 70.1194C81.3471 71.5256 81.3546 72.9317 81.3623 74.3379C81.3653 75.2891 81.368 76.2402 81.3705 77.1914C81.3771 79.5278 81.3875 81.8641 81.3998 84.2004C81.7958 84.3984 82.1918 84.5964 82.5998 84.8004C82.5998 77.8704 82.5998 70.9404 82.5998 63.8004C82.4018 63.8004 82.2038 63.8004 81.9998 63.8004Z" fill="#F1F5F9"/>
<path d="M24.9998 32C25.5938 32 26.1878 32 26.7998 32C27.6195 33.6394 27.4973 34.9857 27.5263 36.8188C27.5433 37.5404 27.5604 38.262 27.5779 39.0055C27.6091 40.5351 27.6357 42.0648 27.6576 43.5945C27.6761 44.3161 27.6947 45.0378 27.7138 45.7813C27.7257 46.446 27.7376 47.1108 27.7499 47.7957C27.8323 48.3251 27.9148 48.8545 27.9998 49.4C28.5938 49.796 29.1878 50.192 29.7998 50.6C29.7998 44.66 29.7998 38.72 29.7998 32.6C30.5918 32.6 31.3838 32.6 32.1998 32.6C32.1998 38.54 32.1998 44.48 32.1998 50.6C34.7344 49.1186 34.7344 49.1186 34.9273 47.1085C34.9461 46.1046 34.9461 46.1046 34.9654 45.0805C34.9847 44.3554 35.0041 43.6303 35.024 42.8832C35.0325 42.1256 35.041 41.368 35.0498 40.5875C35.0675 39.823 35.0853 39.0584 35.1037 38.2707C35.1461 36.3804 35.1777 34.4906 35.1998 32.6C35.9918 32.6 36.7838 32.6 37.5998 32.6C37.6697 35.2249 37.7122 37.8495 37.7498 40.475C37.7699 41.2175 37.79 41.96 37.8107 42.725C37.877 48.8956 37.877 48.8956 36.5404 51.1203C35.1998 52.4 35.1998 52.4 32.7998 52.4C32.8842 53.6752 32.9724 54.9502 33.0623 56.225C33.111 56.935 33.1597 57.645 33.2099 58.3766C33.2863 60.1491 33.2863 60.1491 33.9998 61.4C34.0666 63.1797 34.0982 64.9449 34.1005 66.725C34.1025 67.2532 34.1045 67.7813 34.1066 68.3255C34.1096 69.4432 34.111 70.5608 34.1109 71.6785C34.1123 73.3931 34.1232 75.1074 34.1345 76.8219C34.1363 77.9062 34.1375 78.9906 34.138 80.075C34.1424 80.59 34.1467 81.105 34.1511 81.6356C34.1371 85.2627 34.1371 85.2627 32.7998 86.6C30.9998 86.75 30.9998 86.75 29.1998 86.6C27.6013 85.0015 27.8568 83.809 27.8484 81.6356C27.8527 81.1206 27.857 80.6056 27.8615 80.075C27.8618 79.5468 27.862 79.0187 27.8623 78.4745C27.8641 77.3568 27.8689 76.2391 27.8763 75.1215C27.8872 73.407 27.8886 71.6927 27.8884 69.9781C27.8914 68.8937 27.8949 67.8094 27.899 66.725C27.8996 66.21 27.9003 65.695 27.901 65.1644C27.9301 61.5393 27.9301 61.5393 28.5998 60.2C28.7375 58.8774 28.8462 57.5516 28.9373 56.225C29.0127 55.1553 29.0127 55.1553 29.0896 54.0641C29.1441 53.2404 29.1441 53.2404 29.1998 52.4C28.8409 52.3505 28.482 52.301 28.1123 52.25C26.3536 51.647 25.9327 51.0031 24.9998 49.4C24.7954 47.5303 24.7954 47.5303 24.824 45.3594C24.8298 44.5821 24.8356 43.8048 24.8416 43.0039C24.8566 42.1859 24.8718 41.368 24.8873 40.55C24.8963 39.7227 24.9045 38.8953 24.9119 38.068C24.9331 36.0451 24.9627 34.0227 24.9998 32ZM30.3998 62C30.3998 69.326 30.3998 76.652 30.3998 84.2C30.9938 84.2 31.5878 84.2 32.1998 84.2C32.1998 76.874 32.1998 69.548 32.1998 62C31.6058 62 31.0118 62 30.3998 62Z" fill="#F1F5F9"/>
<path d="M82.0001 31.4004C82.5941 31.4004 83.1881 31.4004 83.8001 31.4004C83.8063 31.7899 83.8125 32.1795 83.8188 32.5808C83.8835 36.6198 83.9523 40.6587 84.0235 44.6975C84.0495 46.2067 84.0745 47.7159 84.0985 49.225C84.133 51.389 84.1712 53.5529 84.2103 55.7168C84.2203 56.3962 84.2303 57.0755 84.2406 57.7755C84.2526 58.4001 84.2646 59.0247 84.2769 59.6682C84.2862 60.2211 84.2956 60.7741 84.3052 61.3438C84.2622 62.5929 84.2622 62.5929 85.0001 63.2004C85.0681 64.8297 85.0986 66.4432 85.1009 68.073C85.1029 68.5621 85.1049 69.0512 85.1069 69.555C85.11 70.5916 85.1114 71.6281 85.1113 72.6646C85.1126 74.2541 85.1235 75.8434 85.1349 77.4328C85.1366 78.4379 85.1378 79.443 85.1384 80.448C85.1427 80.9256 85.147 81.4031 85.1514 81.8951C85.1374 85.2631 85.1374 85.2631 83.8001 86.6004C81.9626 86.7129 81.9626 86.7129 80.2001 86.6004C79.0944 85.4947 79.5229 83.9426 79.5167 82.4716C79.5179 81.9778 79.5192 81.4841 79.5204 80.9754C79.5198 80.4716 79.5193 79.9678 79.5187 79.4487C79.5183 78.3814 79.5194 77.3142 79.5219 76.2469C79.5251 74.6074 79.5219 72.968 79.5181 71.3285C79.5185 70.2941 79.5192 69.2598 79.5204 68.2254C79.5192 67.7316 79.518 67.2379 79.5167 66.7292C79.5311 63.2694 79.5311 63.2694 80.2001 62.6004C80.6008 59.5949 80.0037 57.8291 78.7001 55.1004C76.0079 48.9644 76.557 42.696 78.9134 36.5262C79.7875 34.5841 80.6075 33.0176 82.0001 31.4004ZM80.8001 38.0004C79.6842 40.8345 79.4161 43.3869 79.4501 46.4004C79.4455 46.8119 79.4408 47.2233 79.436 47.6473C79.446 50.2556 79.8459 52.3771 80.8001 54.8004C80.9981 54.8004 81.1961 54.8004 81.4001 54.8004C81.4001 49.2564 81.4001 43.7124 81.4001 38.0004C81.2021 38.0004 81.0041 38.0004 80.8001 38.0004ZM82.0001 63.8004C81.1828 64.4814 81.1828 64.4814 81.332 66.2861C81.3321 67.1208 81.3355 67.9555 81.3415 68.7902C81.3424 69.2289 81.3432 69.6675 81.3441 70.1194C81.3474 71.5256 81.355 72.9317 81.3626 74.3379C81.3656 75.2891 81.3683 76.2402 81.3708 77.1914C81.3774 79.5278 81.3878 81.8641 81.4001 84.2004C81.7961 84.3984 82.1921 84.5964 82.6001 84.8004C82.6001 77.8704 82.6001 70.9404 82.6001 63.8004C82.4021 63.8004 82.2041 63.8004 82.0001 63.8004Z" fill="#F1F5F9"/>
<path d="M83.1999 32C83.1999 41.9 83.1999 51.8 83.1999 62C82.0119 62.297 82.0119 62.297 80.7999 62.6C80.7442 61.7833 80.7442 61.7833 80.6874 60.95C80.3998 58.7709 79.6076 57.0758 78.6624 55.1C76.0299 48.9778 76.5458 42.6415 78.8687 36.4859C79.6496 34.8991 81.121 32 83.1999 32ZM80.7999 38C79.684 40.8341 79.4159 43.3866 79.4499 46.4C79.4453 46.8115 79.4406 47.2229 79.4359 47.6469C79.4458 50.2552 79.8457 52.3767 80.7999 54.8C80.9979 54.8 81.1959 54.8 81.3999 54.8C81.3999 49.256 81.3999 43.712 81.3999 38C81.2019 38 81.0039 38 80.7999 38Z" fill="#F1F5F9"/>
<path d="M73.6 61.4004C74.392 61.4004 75.184 61.4004 76 61.4004C76.4497 66.4591 74.646 70.9929 71.725 75.0879C68.2792 79.2051 63.8444 81.5115 58.6 82.4004C56.8 82.4754 56.8 82.4754 55.6 82.4004C55.402 81.6084 55.204 80.8164 55 80.0004C55.4138 79.9486 55.8276 79.8967 56.2539 79.8434C62.189 78.9559 66.5005 77.0222 70.3375 72.3059C72.5186 69.0045 73.1877 65.2756 73.6 61.4004Z" fill="#F1F5F9"/>
<path d="M56.0501 44.5626C56.5296 44.568 57.0092 44.5734 57.5032 44.579C57.8652 44.586 58.2272 44.5929 58.6001 44.6001C58.6001 45.1941 58.6001 45.7881 58.6001 46.4001C58.0131 46.5246 57.426 46.6491 56.8212 46.7774C51.2771 48.0414 46.6122 49.4564 43.2509 54.3946C41.4098 57.7743 40.5407 61.2079 40.0001 65.0001C39.2081 65.0001 38.4161 65.0001 37.6001 65.0001C37.7287 58.8491 39.235 54.3039 43.4876 49.7751C47.1055 46.3897 51.069 44.4893 56.0501 44.5626Z" fill="#F1F5F9"/>
<path d="M25.0002 32C25.5942 32 26.1882 32 26.8002 32C27.62 33.6394 27.4977 34.9857 27.5268 36.8187C27.5438 37.5404 27.5608 38.262 27.5784 39.0055C27.6096 40.5351 27.6362 42.0648 27.6581 43.5945C27.6766 44.3161 27.6952 45.0378 27.7143 45.7812C27.7262 46.446 27.7381 47.1108 27.7503 47.7957C27.8328 48.3251 27.9153 48.8545 28.0002 49.4C28.5942 49.796 29.1882 50.192 29.8002 50.6C29.8002 44.66 29.8002 38.72 29.8002 32.6C29.9982 32.6 30.1962 32.6 30.4002 32.6C30.5241 52.8249 30.5241 52.8249 29.8002 60.8C29.4042 60.602 29.0082 60.404 28.6002 60.2C28.7982 57.626 28.9962 55.052 29.2002 52.4C28.4082 52.202 27.6162 52.004 26.8002 51.8C25.3156 50.3926 25.0197 49.5776 24.7959 47.5303C24.8053 46.8139 24.8148 46.0975 24.8245 45.3594C24.8303 44.5821 24.8361 43.8048 24.842 43.0039C24.8571 42.1859 24.8723 41.368 24.8877 40.55C24.8968 39.7227 24.905 38.8953 24.9124 38.068C24.9336 36.0451 24.9632 34.0227 25.0002 32Z" fill="#F1F5F9"/>
<path d="M29.2002 61.4004C29.3982 61.4004 29.5962 61.4004 29.8002 61.4004C29.8002 68.9244 29.8002 76.4484 29.8002 84.2004C30.9882 83.9034 30.9882 83.9034 32.2002 83.6004C32.3982 77.2644 32.5962 70.9284 32.8002 64.4004C34.2977 66.6466 34.155 67.8511 34.1596 70.534C34.1607 70.9548 34.1619 71.3755 34.163 71.809C34.1639 72.6972 34.1617 73.5853 34.1566 74.4734C34.1502 75.835 34.1566 77.1962 34.1643 78.5578C34.1635 79.4207 34.1619 80.2836 34.1596 81.1465C34.1582 81.9331 34.1569 82.7198 34.1555 83.5302C34.0002 85.4004 34.0002 85.4004 32.8002 86.6004C30.9627 86.7129 30.9627 86.7129 29.2002 86.6004C28.0624 85.4627 28.5228 83.8022 28.5168 82.2886C28.518 81.7686 28.5192 81.2486 28.5205 80.7129C28.5199 80.1825 28.5194 79.652 28.5188 79.1055C28.5184 77.9817 28.5195 76.858 28.522 75.7342C28.5252 74.0078 28.522 72.2815 28.5182 70.5551C28.5186 69.466 28.5193 68.377 28.5205 67.2879C28.5193 66.7679 28.5181 66.2479 28.5168 65.7122C28.5312 62.0694 28.5312 62.0694 29.2002 61.4004Z" fill="#F1F5F9"/>
<path d="M35.7999 32C36.3939 32.198 36.9879 32.396 37.5999 32.6C37.6698 35.2249 37.7123 37.8495 37.7499 40.475C37.77 41.2175 37.7901 41.96 37.8108 42.725C37.8772 48.8942 37.8772 48.8942 36.503 51.1203C35.1999 52.4 35.1999 52.4 33.3999 52.4C33.9249 49.475 33.9249 49.475 34.5999 48.8C34.6876 47.6081 34.7363 46.4134 34.7687 45.2187C34.7911 44.4925 34.8135 43.7662 34.8366 43.018C34.8575 42.253 34.8784 41.4881 34.8999 40.7C34.941 39.1937 34.9846 37.6874 35.0312 36.1812C35.0493 35.5095 35.0675 34.8378 35.0862 34.1457C35.1999 32.6 35.1999 32.6 35.7999 32Z" fill="#F1F5F9"/>
<path d="M30.3998 32C30.9938 32.198 31.5878 32.396 32.1998 32.6C32.1998 38.54 32.1998 44.48 32.1998 50.6C32.7938 50.798 33.3878 50.996 33.9998 51.2C33.8018 51.596 33.6038 51.992 33.3998 52.4C32.2118 52.4 31.0238 52.4 29.7998 52.4C29.9978 45.668 30.1958 38.936 30.3998 32Z" fill="#F1F5F9"/>
<path d="M73.5999 61.4004C74.3919 61.4004 75.1839 61.4004 75.9999 61.4004C76.1271 64.5156 75.7547 66.8764 74.7999 69.8004C74.4039 69.4044 74.0079 69.0084 73.5999 68.6004C73.0059 68.8974 73.0059 68.8974 72.3999 69.2004C72.7959 66.6264 73.1919 64.0524 73.5999 61.4004Z" fill="#F1F5F9"/>
<path d="M74.7999 75.7998C74.9979 76.3938 75.1959 76.9878 75.3999 77.5998C74.3999 78.5998 73.3999 79.5998 72.3999 80.5998C72.0658 80.9587 71.7317 81.3176 71.3874 81.6873C70.5999 82.3998 70.5999 82.3998 69.3999 82.3998C70.245 80.4707 71.262 79.2067 72.7749 77.7498C73.1539 77.3816 73.5329 77.0135 73.9233 76.6342C74.3572 76.2212 74.3572 76.2212 74.7999 75.7998Z" fill="#F1F5F9"/>
<path d="M58.6002 44.6003C58.6002 45.1943 58.6002 45.7883 58.6002 46.4003C55.9272 46.6973 55.9272 46.6973 53.2002 47.0003C53.3982 46.4063 53.5962 45.8123 53.8002 45.2003C55.5571 44.6146 56.7739 44.5509 58.6002 44.6003Z" fill="#F1F5F9"/>
<path d="M73.6002 68C73.7982 68 73.9962 68 74.2002 68C74.0022 69.386 73.8042 70.772 73.6002 72.2C73.0062 72.2 72.4122 72.2 71.8002 72.2C71.6022 71.804 71.4042 71.408 71.2002 71C71.9847 69.9878 72.7852 68.9878 73.6002 68Z" fill="#F1F5F9"/>
</g>
<rect width="32" height="32" fill="#222222"/>
<path d="M22.468 3.36675C21.3097 3.4245 20.1607 3.87625 19.2075 4.8295L3.15405 20.883C2.18355 21.8534 1.8293 23.0546 1.95361 24.1736C2.07793 25.2926 2.64443 26.3289 3.44068 27.1252C4.2368 27.9214 5.27318 28.4879 6.39211 28.6122C7.51118 28.7366 8.7123 28.3822 9.68274 27.4119L23.4429 13.6519C24.7553 12.3394 24.6584 10.6319 23.7296 9.703C22.8008 8.77425 21.0931 8.67718 19.7807 9.98962L10.6074 19.1628L11.4029 19.9584L20.5764 10.7851C21.5572 9.80412 22.4297 9.99381 22.9342 10.4983C23.4387 11.0029 23.6284 11.8753 22.6474 12.8562L8.88743 26.6162C8.13793 27.3657 7.33243 27.5849 6.51649 27.4942C5.70055 27.4035 4.87336 26.9667 4.23618 26.3296C3.59905 25.6924 3.1623 24.8652 3.07168 24.0493C2.98105 23.2334 3.20005 22.4278 3.94955 21.6783L20.003 5.625C21.0254 4.60262 22.2013 4.33731 23.4354 4.54562C24.6694 4.75393 25.9432 5.48062 26.9476 6.485C27.9519 7.48925 28.6786 8.76312 28.8869 9.99718C29.0952 11.2313 28.8299 12.4072 27.8076 13.4297L14.0476 27.1897L14.8429 27.9851L28.6031 14.225C29.8741 12.9541 30.2537 11.335 29.9962 9.80987C29.7388 8.28475 28.8888 6.83518 27.7431 5.6895C26.5974 4.54375 25.1479 3.69387 23.6227 3.43637C23.2415 3.372 22.8542 3.3475 22.4681 3.36675H22.468Z" fill="url(#paint1_linear_820_1046)"/>
<defs>
<linearGradient id="paint0_linear_820_1046" x1="89" y1="104" x2="89" y2="80" gradientUnits="userSpaceOnUse">
<stop stop-color="#EEF2F3"/>
<stop offset="1" stop-color="#8E9EAB"/>
</linearGradient>
<linearGradient id="paint1_linear_820_1046" x1="16.001" y1="28.6362" x2="16.001" y2="3.36035" gradientUnits="userSpaceOnUse">
<stop stop-color="#EEF2F3"/>
<stop offset="1" stop-color="#8E9EAB"/>
</linearGradient>
<clipPath id="clip0_820_1046">
<rect width="60" height="60" fill="white" transform="translate(25 29)"/>
</clipPath>
</defs>
</svg>
