<svg width="28" height="28" viewBox="0 0 28 28" fill="none" xmlns="http://www.w3.org/2000/svg">
<path d="M16.3335 3.81351C16.3335 2.99567 15.6708 2.33301 14.853 2.33301H13.1485C12.3295 2.33301 11.6668 2.99567 11.6668 3.81351C11.6668 4.48784 11.2048 5.06651 10.576 5.31384C10.4764 5.35429 10.3781 5.39551 10.2808 5.43751C9.66133 5.70584 8.92516 5.62417 8.44683 5.14701C8.16906 4.86987 7.79271 4.71423 7.40033 4.71423C7.00795 4.71423 6.6316 4.86987 6.35383 5.14701L5.1475 6.35334C4.87036 6.63111 4.71472 7.00746 4.71472 7.39984C4.71472 7.79222 4.87036 8.16857 5.1475 8.44634C5.62583 8.92467 5.7075 9.65968 5.43683 10.2803C5.39431 10.378 5.35348 10.4764 5.31433 10.5755C5.067 11.2043 4.48833 11.6663 3.814 11.6663C2.99616 11.6663 2.3335 12.329 2.3335 13.1468V14.8525C2.3335 15.6703 2.99616 16.333 3.814 16.333C4.48833 16.333 5.067 16.795 5.31433 17.4238C5.35477 17.5234 5.39561 17.6218 5.43683 17.719C5.70633 18.3385 5.62466 19.0747 5.1475 19.553C4.87036 19.8308 4.71472 20.2071 4.71472 20.5995C4.71472 20.9919 4.87036 21.3682 5.1475 21.646L6.35383 22.8523C6.6316 23.1295 7.00795 23.2851 7.40033 23.2851C7.79271 23.2851 8.16906 23.1295 8.44683 22.8523C8.92516 22.374 9.66016 22.2923 10.2808 22.5618C10.3781 22.6046 10.4764 22.6458 10.576 22.6855C11.2048 22.9328 11.6668 23.5115 11.6668 24.1858C11.6668 25.0037 12.3295 25.6663 13.1473 25.6663H14.853C15.6708 25.6663 16.3335 25.0037 16.3335 24.1858C16.3335 23.5115 16.7955 22.9328 17.4243 22.6843C17.5239 22.6455 17.6223 22.605 17.7195 22.563C18.339 22.2923 19.0752 22.3752 19.5523 22.8523C19.8301 23.1298 20.2068 23.2857 20.5994 23.2857C20.9921 23.2857 21.3687 23.1298 21.6465 22.8523L22.8528 21.646C23.13 21.3682 23.2856 20.9919 23.2856 20.5995C23.2856 20.2071 23.13 19.8308 22.8528 19.553C22.3745 19.0747 22.2928 18.3397 22.5623 17.719C22.6051 17.6218 22.6463 17.5234 22.686 17.4238C22.9333 16.795 23.512 16.333 24.1863 16.333C25.0042 16.333 25.6668 15.6703 25.6668 14.8525V13.148C25.6668 12.3302 25.0042 11.6675 24.1863 11.6675C23.512 11.6675 22.9333 11.2055 22.6848 10.5767C22.6457 10.4776 22.6048 10.3792 22.5623 10.2815C22.294 9.66201 22.3757 8.92584 22.8528 8.44751C23.13 8.16974 23.2856 7.79338 23.2856 7.40101C23.2856 7.00863 23.13 6.63228 22.8528 6.35451L21.6465 5.14817C21.3687 4.87104 20.9924 4.7154 20.6 4.7154C20.2076 4.7154 19.8313 4.87104 19.5535 5.14817C19.0752 5.62651 18.3402 5.70817 17.7195 5.43867C17.6218 5.39577 17.5234 5.35454 17.4243 5.31501C16.7955 5.06651 16.3335 4.48667 16.3335 3.81351Z" stroke="#F1F5F9"/>
<path d="M18.6668 13.9997C18.6668 15.2374 18.1752 16.4243 17.3 17.2995C16.4248 18.1747 15.2378 18.6663 14.0002 18.6663C12.7625 18.6663 11.5755 18.1747 10.7003 17.2995C9.82516 16.4243 9.3335 15.2374 9.3335 13.9997C9.3335 12.762 9.82516 11.575 10.7003 10.6998C11.5755 9.82467 12.7625 9.33301 14.0002 9.33301C15.2378 9.33301 16.4248 9.82467 17.3 10.6998C18.1752 11.575 18.6668 12.762 18.6668 13.9997Z" stroke="#F1F5F9"/>
</svg>
