<svg width="28" height="28" viewBox="0 0 28 28" fill="none" xmlns="http://www.w3.org/2000/svg">
<path d="M16.3333 3.81351C16.3333 2.99567 15.6706 2.33301 14.8528 2.33301H13.1483C12.3293 2.33301 11.6666 2.99567 11.6666 3.81351C11.6666 4.48784 11.2046 5.06651 10.5758 5.31384C10.4762 5.35429 10.3778 5.39551 10.2806 5.43751C9.66109 5.70584 8.92492 5.62417 8.44659 5.14701C8.16882 4.86987 7.79246 4.71423 7.40009 4.71423C7.00771 4.71423 6.63135 4.86987 6.35359 5.14701L5.14725 6.35334C4.87012 6.63111 4.71448 7.00746 4.71448 7.39984C4.71448 7.79222 4.87012 8.16857 5.14725 8.44634C5.62559 8.92467 5.70725 9.65968 5.43659 10.2803C5.39407 10.378 5.35323 10.4764 5.31409 10.5755C5.06675 11.2043 4.48809 11.6663 3.81375 11.6663C2.99592 11.6663 2.33325 12.329 2.33325 13.1468V14.8525C2.33325 15.6703 2.99592 16.333 3.81375 16.333C4.48809 16.333 5.06675 16.795 5.31409 17.4238C5.35453 17.5234 5.39536 17.6218 5.43659 17.719C5.70609 18.3385 5.62442 19.0747 5.14725 19.553C4.87012 19.8308 4.71448 20.2071 4.71448 20.5995C4.71448 20.9919 4.87012 21.3682 5.14725 21.646L6.35359 22.8523C6.63135 23.1295 7.00771 23.2851 7.40009 23.2851C7.79246 23.2851 8.16882 23.1295 8.44659 22.8523C8.92492 22.374 9.65992 22.2923 10.2806 22.5618C10.3778 22.6046 10.4762 22.6458 10.5758 22.6855C11.2046 22.9328 11.6666 23.5115 11.6666 24.1858C11.6666 25.0037 12.3293 25.6663 13.1471 25.6663H14.8528C15.6706 25.6663 16.3333 25.0037 16.3333 24.1858C16.3333 23.5115 16.7953 22.9328 17.4241 22.6843C17.5236 22.6455 17.622 22.605 17.7193 22.563C18.3388 22.2923 19.0749 22.3752 19.5521 22.8523C19.8299 23.1298 20.2065 23.2857 20.5992 23.2857C20.9918 23.2857 21.3684 23.1298 21.6463 22.8523L22.8526 21.646C23.1297 21.3682 23.2854 20.9919 23.2854 20.5995C23.2854 20.2071 23.1297 19.8308 22.8526 19.553C22.3743 19.0747 22.2926 18.3397 22.5621 17.719C22.6049 17.6218 22.6461 17.5234 22.6858 17.4238C22.9331 16.795 23.5118 16.333 24.1861 16.333C25.0039 16.333 25.6666 15.6703 25.6666 14.8525V13.148C25.6666 12.3302 25.0039 11.6675 24.1861 11.6675C23.5118 11.6675 22.9331 11.2055 22.6846 10.5767C22.6454 10.4776 22.6046 10.3792 22.5621 10.2815C22.2938 9.66201 22.3754 8.92584 22.8526 8.44751C23.1297 8.16974 23.2854 7.79338 23.2854 7.40101C23.2854 7.00863 23.1297 6.63228 22.8526 6.35451L21.6463 5.14817C21.3685 4.87104 20.9921 4.7154 20.5998 4.7154C20.2074 4.7154 19.831 4.87104 19.5533 5.14817C19.0749 5.62651 18.3399 5.70817 17.7193 5.43867C17.6216 5.39577 17.5232 5.35454 17.4241 5.31501C16.7953 5.06651 16.3333 4.48667 16.3333 3.81351Z" stroke="#001B47" stroke-width="2"/>
<path d="M18.6666 13.9997C18.6666 15.2374 18.1749 16.4243 17.2998 17.2995C16.4246 18.1747 15.2376 18.6663 13.9999 18.6663C12.7622 18.6663 11.5753 18.1747 10.7001 17.2995C9.82492 16.4243 9.33325 15.2374 9.33325 13.9997C9.33325 12.762 9.82492 11.575 10.7001 10.6998C11.5753 9.82467 12.7622 9.33301 13.9999 9.33301C15.2376 9.33301 16.4246 9.82467 17.2998 10.6998C18.1749 11.575 18.6666 12.762 18.6666 13.9997Z" stroke="#001B47" stroke-width="2"/>
</svg>
