<svg width="39" height="39" viewBox="0 0 39 39" fill="none" xmlns="http://www.w3.org/2000/svg">
<path d="M19.5 3.25C17.366 3.25 15.2529 3.67032 13.2814 4.48696C11.3099 5.3036 9.51847 6.50056 8.00951 8.00951C4.96205 11.057 3.25 15.1902 3.25 19.5C3.25 26.6825 7.91375 32.7763 14.365 34.9375C15.1775 35.0675 15.4375 34.5637 15.4375 34.125V31.3787C10.9363 32.3537 9.9775 29.2012 9.9775 29.2012C9.23 27.3162 8.17375 26.8125 8.17375 26.8125C6.695 25.805 8.2875 25.8375 8.2875 25.8375C9.9125 25.9513 10.7738 27.5112 10.7738 27.5112C12.1875 29.9813 14.5763 29.25 15.5025 28.86C15.6488 27.8038 16.0712 27.0888 16.5262 26.6825C12.9187 26.2763 9.1325 24.8787 9.1325 18.6875C9.1325 16.8837 9.75 15.4375 10.8063 14.2837C10.6438 13.8775 10.075 12.1875 10.9688 9.99375C10.9688 9.99375 12.3337 9.555 15.4375 11.6512C16.7212 11.2937 18.1187 11.115 19.5 11.115C20.8813 11.115 22.2787 11.2937 23.5625 11.6512C26.6663 9.555 28.0312 9.99375 28.0312 9.99375C28.925 12.1875 28.3563 13.8775 28.1938 14.2837C29.25 15.4375 29.8675 16.8837 29.8675 18.6875C29.8675 24.895 26.065 26.26 22.4412 26.6663C23.0263 27.17 23.5625 28.1613 23.5625 29.6725V34.125C23.5625 34.5637 23.8225 35.0837 24.6513 34.9375C31.1025 32.76 35.75 26.6825 35.75 19.5C35.75 17.366 35.3297 15.2529 34.513 13.2814C33.6964 11.3099 32.4994 9.51847 30.9905 8.00951C29.4815 6.50056 27.6901 5.3036 25.7186 4.48696C23.7471 3.67032 21.634 3.25 19.5 3.25Z" fill="black"/>
</svg>
