<svg width="24" height="24" viewBox="0 0 24 24" fill="none" xmlns="http://www.w3.org/2000/svg">
<path fill-rule="evenodd" clip-rule="evenodd" d="M5 4C4.73478 4 4.48043 4.10536 4.29289 4.29289C4.10536 4.48043 4 4.73478 4 5V19C4 19.2652 4.10536 19.5196 4.29289 19.7071C4.48043 19.8946 4.73478 20 5 20H19C19.2652 20 19.5196 19.8946 19.7071 19.7071C19.8946 19.5196 20 19.2652 20 19V13.737C20 13.4718 20.1054 13.2174 20.2929 13.0299C20.4804 12.8424 20.7348 12.737 21 12.737C21.2652 12.737 21.5196 12.8424 21.7071 13.0299C21.8946 13.2174 22 13.4718 22 13.737V19C22 19.7956 21.6839 20.5587 21.1213 21.1213C20.5587 21.6839 19.7956 22 19 22H5C4.20435 22 3.44129 21.6839 2.87868 21.1213C2.31607 20.5587 2 19.7956 2 19V5C2 4.20435 2.31607 3.44129 2.87868 2.87868C3.44129 2.31607 4.20435 2 5 2H10.017C10.2822 2 10.5366 2.10536 10.7241 2.29289C10.9116 2.48043 11.017 2.73478 11.017 3C11.017 3.26522 10.9116 3.51957 10.7241 3.70711C10.5366 3.89464 10.2822 4 10.017 4H5Z" fill="#EFE0AE"/>
<path fill-rule="evenodd" clip-rule="evenodd" d="M21.4111 2.57187C21.5911 2.75239 21.6922 2.99693 21.6922 3.25187C21.6922 3.50681 21.5911 3.75135 21.4111 3.93187L12.6391 12.7179C12.55 12.8071 12.4441 12.8778 12.3276 12.9261C12.2111 12.9744 12.0862 12.9992 11.9601 12.9992C11.834 12.9992 11.7091 12.9744 11.5926 12.9261C11.4761 12.8778 11.3703 12.8071 11.2811 12.7179C11.1011 12.5374 11 12.2928 11 12.0379C11 11.7829 11.1011 11.5384 11.2811 11.3579L20.0541 2.57187C20.2341 2.39203 20.4782 2.29102 20.7326 2.29102C20.9871 2.29102 21.2311 2.39203 21.4111 2.57187Z" fill="#EFE0AE"/>
<path fill-rule="evenodd" clip-rule="evenodd" d="M21.04 2C21.57 2 22 2.43 22 2.962V8C22 8.531 21.53 9 21 9C20.47 9 20 8.531 20 8V4H16C15.47 4 15 3.531 15 3C15 2.469 15.43 2 15.96 2H21.04Z" fill="#EFE0AE"/>
</svg>
