<svg width="16" height="16" viewBox="0 0 16 16" fill="none" xmlns="http://www.w3.org/2000/svg">
<path fill-rule="evenodd" clip-rule="evenodd" d="M1.33325 3.33301C1.33325 2.80257 1.54397 2.29387 1.91904 1.91879C2.29411 1.54372 2.80282 1.33301 3.33325 1.33301H7.44792C7.97808 1.3333 8.48643 1.54407 8.86125 1.91901L14.1946 7.25234C14.5695 7.6274 14.7802 8.13601 14.7802 8.66634C14.7802 9.19667 14.5695 9.70529 14.1946 10.0803L10.0813 14.195C9.89553 14.3808 9.67504 14.5281 9.43236 14.6286C9.18969 14.7292 8.92959 14.7809 8.66692 14.7809C8.40425 14.7809 8.14415 14.7292 7.90147 14.6286C7.6588 14.5281 7.43831 14.3808 7.25259 14.195L1.91925 8.86167C1.54415 8.48669 1.33337 7.97806 1.33325 7.44767V3.33301ZM4.66659 3.99967C4.48977 3.99967 4.32021 4.06991 4.19518 4.19494C4.07016 4.31996 3.99992 4.48953 3.99992 4.66634C3.99992 4.84315 4.07016 5.01272 4.19518 5.13775C4.32021 5.26277 4.48977 5.33301 4.66659 5.33301C4.8434 5.33301 5.01363 5.26277 5.13866 5.13775C5.26368 5.01272 5.33392 4.84315 5.33392 4.66634C5.33392 4.48953 5.26368 4.31996 5.13866 4.19494C5.01363 4.06991 4.8434 3.99967 4.66659 3.99967Z" fill="#F1F5F9"/>
</svg>
