<svg width="100" height="100" viewBox="0 0 100 100" fill="none" xmlns="http://www.w3.org/2000/svg">
<path d="M50.9 41.2408V60.385C50.9007 60.5116 50.8764 60.6371 50.8285 60.7543C50.7806 60.8714 50.7099 60.978 50.6207 61.0677C50.5314 61.1575 50.4253 61.2287 50.3084 61.2773C50.1916 61.3259 50.0662 61.351 49.9396 61.351C49.813 61.351 49.6877 61.3259 49.5708 61.2773C49.4539 61.2287 49.3478 61.1575 49.2586 61.0677C49.1693 60.978 49.0987 60.8714 49.0508 60.7543C49.0028 60.6371 48.9785 60.5116 48.9792 60.385V41.2408L41.9761 48.6818C41.8897 48.7761 41.7847 48.8514 41.6676 48.903C41.5506 48.9545 41.4241 48.9811 41.2962 48.9811C41.1683 48.9811 41.0418 48.9545 40.9247 48.903C40.8077 48.8514 40.7026 48.7761 40.6162 48.6818C40.4355 48.4851 40.3352 48.2277 40.3352 47.9606C40.3352 47.6934 40.4355 47.436 40.6162 47.2393L49.2597 38.0542C49.346 37.9599 49.4511 37.8846 49.5682 37.833C49.6852 37.7815 49.8117 37.7549 49.9396 37.7549C50.0675 37.7549 50.194 37.7815 50.3111 37.833C50.4282 37.8846 50.5332 37.9599 50.6196 38.0542L59.263 47.2393C59.4432 47.4359 59.5432 47.6929 59.5432 47.9596C59.5432 48.2263 59.4432 48.4833 59.263 48.6799C59.1767 48.7742 59.0716 48.8495 58.9546 48.9011C58.8375 48.9526 58.711 48.9792 58.5831 48.9792C58.4552 48.9792 58.3287 48.9526 58.2116 48.9011C58.0946 48.8495 57.9895 48.7742 57.9031 48.6799L50.9 41.2427V41.2408Z" fill="#F1F5F9" fill-opacity="0.7"/>
<path d="M55.8252 4.54395C54.3064 -1.51855 45.7002 -1.51855 44.1752 4.54395L43.7314 6.33144C43.4718 7.37024 42.9389 8.32063 42.1881 9.08399C41.4372 9.84735 40.4957 10.3959 39.4614 10.6726C38.427 10.9494 37.3374 10.9443 36.3057 10.6579C35.274 10.3715 34.3377 9.81427 33.5939 9.04394L32.3127 7.72519C27.9689 3.23145 20.5127 7.53769 22.2314 13.5439L22.7314 15.3189C23.0252 16.3474 23.0388 17.4356 22.7707 18.471C22.5026 19.5064 21.9627 20.4514 21.2067 21.208C20.4507 21.9646 19.5062 22.5054 18.4711 22.7743C17.4359 23.0433 16.3476 23.0306 15.3189 22.7377L13.5439 22.2314C7.54394 20.5127 3.23145 27.9689 7.72519 32.3127L9.04394 33.5939C9.81427 34.3377 10.3715 35.274 10.6579 36.3057C10.9443 37.3374 10.9494 38.427 10.6726 39.4614C10.3959 40.4957 9.84735 41.4372 9.08399 42.1881C8.32063 42.9389 7.37024 43.4718 6.33144 43.7314L4.54395 44.1752C-1.51855 45.6939 -1.51855 54.3002 4.54395 55.8252L6.33144 56.2689C7.37024 56.5286 8.32063 57.0615 9.08399 57.8123C9.84735 58.5632 10.3959 59.5046 10.6726 60.539C10.9494 61.5734 10.9443 62.663 10.6579 63.6947C10.3715 64.7264 9.81427 65.6627 9.04394 66.4064L7.72519 67.6877C3.23145 72.0314 7.53769 79.4877 13.5439 77.7689L15.3189 77.2689C16.348 76.9746 17.4371 76.9608 18.4732 77.2292C19.5094 77.4975 20.4549 78.0381 21.2117 78.7949C21.9685 79.5518 22.5091 80.4973 22.7775 81.5334C23.0458 82.5696 23.0321 83.6586 22.7377 84.6877L22.2314 86.4564C20.5127 92.4564 27.9689 96.7689 32.3127 92.2752L33.5939 90.9564C34.3377 90.1861 35.274 89.6288 36.3057 89.3424C37.3374 89.056 38.427 89.051 39.4614 89.3277C40.4957 89.6045 41.4372 90.153 42.1881 90.9164C42.9389 91.6798 43.4718 92.6301 43.7314 93.6689L44.1752 95.4564C45.6939 101.519 54.3002 101.519 55.8252 95.4564L56.2689 93.6689C56.5286 92.6301 57.0615 91.6798 57.8123 90.9164C58.5632 90.153 59.5046 89.6045 60.539 89.3277C61.5734 89.051 62.663 89.056 63.6947 89.3424C64.7264 89.6288 65.6627 90.1861 66.4064 90.9564L67.6877 92.2752C72.0314 96.7689 79.4877 92.4627 77.7689 86.4564L77.2689 84.6814C76.9746 83.6524 76.9608 82.5633 77.2292 81.5272C77.4975 80.491 78.0381 79.5455 78.7949 78.7887C79.5518 78.0318 80.4973 77.4912 81.5334 77.2229C82.5696 76.9546 83.6586 76.9683 84.6877 77.2627L86.4564 77.7689C92.4564 79.4877 96.7689 72.0314 92.2752 67.6877L90.9564 66.4064C90.1861 65.6627 89.6288 64.7264 89.3424 63.6947C89.056 62.663 89.051 61.5734 89.3277 60.539C89.6045 59.5046 90.153 58.5632 90.9164 57.8123C91.6798 57.0615 92.6301 56.5286 93.6689 56.2689L95.4564 55.8252C101.519 54.3064 101.519 45.7002 95.4564 44.1752L93.6689 43.7314C92.6301 43.4718 91.6798 42.9389 90.9164 42.1881C90.153 41.4372 89.6045 40.4957 89.3277 39.4614C89.051 38.427 89.056 37.3374 89.3424 36.3057C89.6288 35.274 90.1861 34.3377 90.9564 33.5939L92.2752 32.3127C96.7689 27.9689 92.4627 20.5127 86.4564 22.2314L84.6814 22.7314C83.653 23.0252 82.5648 23.0388 81.5294 22.7707C80.494 22.5026 79.549 21.9627 78.7924 21.2067C78.0358 20.4507 77.495 19.5062 77.2261 18.4711C76.9571 17.4359 76.9698 16.3476 77.2627 15.3189L77.7689 13.5439C79.4877 7.54394 72.0314 3.23145 67.6877 7.72519L66.4064 9.04394C65.6627 9.81427 64.7264 10.3715 63.6947 10.6579C62.663 10.9443 61.5734 10.9494 60.539 10.6726C59.5046 10.3959 58.5632 9.84735 57.8123 9.08399C57.0615 8.32063 56.5286 7.37024 56.2689 6.33144L55.8252 4.54395ZM50.0002 81.2314C45.8613 81.29 41.752 80.5253 37.9111 78.9819C34.0703 77.4385 30.5745 75.1472 27.6269 72.241C24.6793 69.3348 22.3387 65.8718 20.7411 62.0531C19.1435 58.2345 18.3209 54.1364 18.3209 49.9971C18.3209 45.8577 19.1435 41.7596 20.7411 37.941C22.3387 34.1224 24.6793 30.6593 27.6269 27.7532C30.5745 24.847 34.0703 22.5556 37.9111 21.0122C41.752 19.4688 45.8613 18.7041 50.0002 18.7627C58.2849 18.7627 66.2303 22.0538 72.0884 27.9119C77.9466 33.7701 81.2377 41.7155 81.2377 50.0002C81.2377 58.2849 77.9466 66.2303 72.0884 72.0884C66.2303 77.9466 58.2849 81.2377 50.0002 81.2377V81.2314Z" fill="#F1F5F9" fill-opacity="0.7"/>
</svg>
