<svg width="166" height="166" viewBox="0 0 166 166" fill="none" xmlns="http://www.w3.org/2000/svg">
<path d="M84.2905 68.8666V100.646C84.2917 100.856 84.2514 101.065 84.1718 101.259C84.0922 101.454 83.975 101.63 83.8268 101.779C83.6787 101.928 83.5025 102.047 83.3085 102.127C83.1145 102.208 82.9064 102.25 82.6963 102.25C82.4861 102.25 82.2781 102.208 82.0841 102.127C81.89 102.047 81.7139 101.928 81.5657 101.779C81.4176 101.63 81.3003 101.454 81.2207 101.259C81.1412 101.065 81.1008 100.856 81.102 100.646V68.8666L69.4768 81.2187C69.3335 81.3753 69.1591 81.5004 68.9648 81.5859C68.7704 81.6714 68.5605 81.7156 68.3481 81.7156C68.1358 81.7156 67.9258 81.6714 67.7315 81.5859C67.5372 81.5004 67.3628 81.3753 67.2194 81.2187C66.9194 80.8922 66.7529 80.4649 66.7529 80.0215C66.7529 79.5781 66.9194 79.1508 67.2194 78.8242L81.5675 63.577C81.7109 63.4204 81.8853 63.2953 82.0796 63.2098C82.274 63.1243 82.484 63.0801 82.6963 63.0801C82.9086 63.0801 83.1186 63.1243 83.3129 63.2098C83.5072 63.2953 83.6816 63.4204 83.825 63.577L98.1731 78.8242C98.4723 79.1506 98.6382 79.5772 98.6382 80.0199C98.6382 80.4626 98.4723 80.8892 98.1731 81.2156C98.0298 81.3722 97.8554 81.4972 97.661 81.5827C97.4667 81.6683 97.2567 81.7125 97.0444 81.7125C96.8321 81.7125 96.6221 81.6683 96.4278 81.5827C96.2335 81.4972 96.0591 81.3722 95.9157 81.2156L84.2905 68.8699V68.8666Z" fill="#001B47" fill-opacity="0.7"/>
<path d="M92.6699 7.54293C90.1488 -2.52082 75.8624 -2.52082 73.3309 7.54293L72.5943 10.5102C72.1633 12.2346 71.2787 13.8122 70.0323 15.0794C68.7859 16.3466 67.223 17.2571 65.506 17.7166C63.7889 18.176 61.9802 18.1676 60.2676 17.6922C58.5549 17.2167 57.0006 16.2917 55.766 15.0129L53.6392 12.8238C46.4286 5.36418 34.0512 12.5126 36.9043 22.4829L37.7343 25.4294C38.222 27.1366 38.2445 28.9431 37.7995 30.6619C37.3545 32.3807 36.4581 33.9492 35.2032 35.2052C33.9483 36.4612 32.3805 37.3589 30.662 37.8053C28.9436 38.2518 27.1371 38.2308 25.4295 37.7446L22.483 36.9042C12.5231 34.0511 5.3643 46.4284 12.8239 53.6391L15.0131 55.7659C16.2918 57.0005 17.2169 58.5547 17.6923 60.2674C18.1677 61.9801 18.1761 63.7888 17.7167 65.5059C17.2573 67.2229 16.3467 68.7857 15.0795 70.0321C13.8123 71.2786 12.2347 72.1632 10.5103 72.5942L7.54305 73.3308C-2.5207 75.8519 -2.5207 90.1383 7.54305 92.6698L10.5103 93.4064C12.2347 93.8374 13.8123 94.722 15.0795 95.9684C16.3467 97.2149 17.2573 98.7777 17.7167 100.495C18.1761 102.212 18.1677 104.02 17.6923 105.733C17.2169 107.446 16.2918 109 15.0131 110.235L12.8239 112.362C5.3643 119.572 12.5127 131.95 22.483 129.096L25.4295 128.266C27.1378 127.778 28.9456 127.755 30.6656 128.2C32.3856 128.646 33.9552 129.543 35.2115 130.8C36.4679 132.056 37.3653 133.625 37.8107 135.345C38.2561 137.065 38.2333 138.873 37.7447 140.582L36.9043 143.518C34.0512 153.478 46.4286 160.636 53.6392 153.177L55.766 150.988C57.0006 149.709 58.5549 148.784 60.2676 148.308C61.9802 147.833 63.7889 147.825 65.506 148.284C67.223 148.743 68.7859 149.654 70.0323 150.921C71.2787 152.188 72.1633 153.766 72.5943 155.49L73.3309 158.458C75.852 168.521 90.1384 168.521 92.6699 158.458L93.4065 155.49C93.8375 153.766 94.7222 152.188 95.9686 150.921C97.215 149.654 98.7778 148.743 100.495 148.284C102.212 147.825 104.021 147.833 105.733 148.308C107.446 148.784 109 149.709 110.235 150.988L112.362 153.177C119.572 160.636 131.95 153.488 129.097 143.518L128.267 140.571C127.778 138.863 127.755 137.055 128.201 135.335C128.646 133.615 129.543 132.046 130.8 130.789C132.056 129.533 133.626 128.635 135.346 128.19C137.066 127.745 138.873 127.767 140.582 128.256L143.518 129.096C153.478 131.95 160.637 119.572 153.177 112.362L150.988 110.235C149.709 109 148.784 107.446 148.309 105.733C147.833 104.02 147.825 102.212 148.284 100.495C148.744 98.7777 149.654 97.2149 150.921 95.9684C152.188 94.722 153.766 93.8374 155.491 93.4064L158.458 92.6698C168.522 90.1487 168.522 75.8623 158.458 73.3308L155.491 72.5942C153.766 72.1632 152.188 71.2786 150.921 70.0321C149.654 68.7857 148.744 67.2229 148.284 65.5059C147.825 63.7888 147.833 61.9801 148.309 60.2674C148.784 58.5547 149.709 57.0005 150.988 55.7659L153.177 53.6391C160.637 46.4284 153.488 34.0511 143.518 36.9042L140.571 37.7342C138.864 38.2219 137.058 38.2444 135.339 37.7994C133.62 37.3544 132.051 36.458 130.795 35.2031C129.54 33.9482 128.642 32.3803 128.195 30.6619C127.749 28.9435 127.77 27.137 128.256 25.4294L129.097 22.4829C131.95 12.5229 119.572 5.36418 112.362 12.8238L110.235 15.0129C109 16.2917 107.446 17.2167 105.733 17.6922C104.021 18.1676 102.212 18.176 100.495 17.7166C98.7778 17.2571 97.215 16.3466 95.9686 15.0794C94.7222 13.8122 93.8375 12.2346 93.4065 10.5102L92.6699 7.54293ZM83.0004 134.844C76.1298 134.941 69.3084 133.672 62.9325 131.11C56.5567 128.548 50.7537 124.744 45.8607 119.92C40.9677 115.096 37.0823 109.347 34.4304 103.008C31.7784 96.6692 30.4127 89.8664 30.4127 82.9951C30.4127 76.1238 31.7784 69.321 34.4304 62.9821C37.0823 56.6431 40.9677 50.8945 45.8607 46.0702C50.7537 41.2459 56.5567 37.4423 62.9325 34.8802C69.3084 32.3182 76.1298 31.0489 83.0004 31.1461C96.753 31.1461 109.942 36.6093 119.667 46.3338C129.391 56.0584 134.855 69.2477 134.855 83.0003C134.855 96.7529 129.391 109.942 119.667 119.667C109.942 129.391 96.753 134.855 83.0004 134.855V134.844Z" fill="#001B47" fill-opacity="0.7"/>
</svg>
