<svg width="16" height="16" viewBox="0 0 16 16" fill="none" xmlns="http://www.w3.org/2000/svg">
<path d="M12.4445 13.3337H2.66672V3.55588H8.54228L9.43117 2.66699H2.66672C2.43097 2.66699 2.20488 2.76064 2.03818 2.92734C1.87148 3.09404 1.77783 3.32013 1.77783 3.55588V13.3337C1.77783 13.5694 1.87148 13.7955 2.03818 13.9622C2.20488 14.1289 2.43097 14.2225 2.66672 14.2225H12.4445C12.6802 14.2225 12.9063 14.1289 13.073 13.9622C13.2397 13.7955 13.3334 13.5694 13.3334 13.3337V6.66699L12.4445 7.55588V13.3337Z" fill="#F1F5F9"/>
<path d="M14.9023 2.59575L13.4046 1.09797C13.3381 1.03132 13.2591 0.978434 13.1722 0.942351C13.0852 0.906269 12.992 0.887695 12.8979 0.887695C12.8038 0.887695 12.7106 0.906269 12.6236 0.942351C12.5367 0.978434 12.4577 1.03132 12.3912 1.09797L6.29789 7.22686L5.80456 9.36464C5.78354 9.46826 5.78575 9.57526 5.81103 9.67793C5.83631 9.7806 5.88403 9.87639 5.95075 9.95842C6.01747 10.0404 6.10155 10.1067 6.19692 10.1523C6.2923 10.198 6.3966 10.2219 6.50234 10.2224C6.55699 10.2284 6.61213 10.2284 6.66678 10.2224L8.82234 9.74686L14.9023 3.60908C14.969 3.54261 15.0219 3.46364 15.058 3.3767C15.094 3.28976 15.1126 3.19655 15.1126 3.10241C15.1126 3.00828 15.094 2.91507 15.058 2.82813C15.0219 2.74119 14.969 2.66222 14.9023 2.59575ZM8.36012 8.92464L6.73345 9.28464L7.11123 7.6713L11.6979 3.05353L12.9512 4.30686L8.36012 8.92464ZM13.4535 3.80464L12.2001 2.5513L12.889 1.84908L14.1512 3.1113L13.4535 3.80464Z" fill="#F1F5F9"/>
</svg>
