<svg width="16" height="16" viewBox="0 0 16 16" fill="none" xmlns="http://www.w3.org/2000/svg">
<path d="M12.9567 2.70996H3.04338C2.60135 2.70996 2.17742 2.88556 1.86486 3.19812C1.5523 3.51068 1.37671 3.9346 1.37671 4.37663V11.6233C1.37671 12.0653 1.5523 12.4892 1.86486 12.8018C2.17742 13.1144 2.60135 13.29 3.04338 13.29H12.9567C13.3987 13.29 13.8227 13.1144 14.1352 12.8018C14.4478 12.4892 14.6234 12.0653 14.6234 11.6233V4.37663C14.6234 3.9346 14.4478 3.51068 14.1352 3.19812C13.8227 2.88556 13.3987 2.70996 12.9567 2.70996ZM3.04338 3.37663H12.9567C13.209 3.37606 13.4521 3.47151 13.6365 3.64361C13.821 3.81572 13.9331 4.05157 13.95 4.30329C12.3034 5.18329 10.65 6.05663 8.99671 6.93663C8.77339 7.07744 8.53668 7.19579 8.29004 7.28996C8.09665 7.32826 7.89731 7.32487 7.70533 7.28004C7.51335 7.23521 7.33314 7.14995 7.17671 7.02996C6.23004 6.52996 5.28338 6.02329 4.34338 5.52329C3.58338 5.12329 2.81004 4.71663 2.05004 4.30996C2.06535 4.05705 2.17672 3.81954 2.36137 3.64604C2.54603 3.47254 2.79 3.37616 3.04338 3.37663ZM13.9567 11.6233C13.9567 11.8885 13.8514 12.1429 13.6638 12.3304C13.4763 12.5179 13.2219 12.6233 12.9567 12.6233H3.04338C2.77816 12.6233 2.52381 12.5179 2.33627 12.3304C2.14873 12.1429 2.04338 11.8885 2.04338 11.6233V5.06663C3.61671 5.89329 5.18338 6.73329 6.75671 7.56663C7.03773 7.73912 7.34036 7.87362 7.65671 7.96663C8.11963 8.04202 8.59412 7.94475 8.99004 7.69329C9.95671 7.18663 10.9167 6.67329 11.8834 6.16663C12.5767 5.79329 13.2634 5.43329 13.9567 5.06663V11.6233Z" fill="#F1F5F9"/>
</svg>
