<svg width="16" height="16" viewBox="0 0 16 16" fill="none" xmlns="http://www.w3.org/2000/svg">
<path d="M8 0.5C5.24325 0.5 3 2.47225 3 4.8965C3 6.179 3.842 7.4995 4.65525 8.7755C5.356 9.87375 6.02525 10.922 6.23425 12H9.7655C9.975 10.9217 10.6435 9.8735 11.344 8.7755C12.1577 7.4995 13 6.179 13 4.8965C13 2.47225 10.7568 0.5 8 0.5ZM8 7.4185C8.483 7.93975 8.938 8.09475 9.146 8.14075C9.11475 8.2795 9.0865 8.415 9.05375 8.5485C8.99225 8.8215 8.93225 9.0875 8.874 9.343C8.71169 10.0611 8.55377 10.7802 8.40025 11.5002H7.5995C7.44562 10.7803 7.2877 10.0612 7.12575 9.343L6.9455 8.5485C6.91275 8.415 6.8845 8.2795 6.85375 8.14075C7.062 8.09475 7.517 7.93975 8 7.4185ZM7.86525 6.87275C7.8175 6.7695 7.80025 6.664 7.84925 6.58625C7.89025 6.5245 7.9445 6.48925 8.00025 6.48925C8.056 6.48925 8.10975 6.5245 8.15125 6.58625C8.2 6.664 8.183 6.76925 8.13525 6.87275C8.1 6.94575 8.05175 7.01525 8 7.0825C7.94777 7.01756 7.9026 6.94725 7.86525 6.87275ZM10.9228 8.50625C10.277 9.5185 9.663 10.4807 9.372 11.5H8.5605C8.74042 10.7955 8.9165 10.0901 9.08875 9.38375C9.15025 9.1285 9.21525 8.86425 9.2815 8.59175C9.3185 8.44675 9.35125 8.29725 9.3875 8.1485C9.5765 8.13575 9.75725 8.07675 9.89825 7.9475C10.0427 7.80525 10.118 7.61925 10.0843 7.42075C10.069 7.32575 9.99775 7.20275 9.86025 7.16075C9.793 7.13812 9.72046 7.13646 9.65225 7.156C9.59557 7.17726 9.54445 7.21111 9.50275 7.255C9.3695 7.403 9.321 7.55075 9.2665 7.69725C9.241 7.771 9.22 7.84475 9.2 7.9175C9.2 7.9175 8.9875 7.93375 8.533 7.628C8.2805 7.45825 8.20775 7.3355 8.1345 7.25425C8.2135 7.1665 8.28925 7.07025 8.348 6.9535C8.37925 6.88825 8.4055 6.8175 8.4145 6.738C8.4235 6.6585 8.40875 6.5685 8.36325 6.491C8.31466 6.40509 8.23845 6.33813 8.147 6.301C8.1015 6.28475 8.05075 6.277 8 6.277C7.94925 6.277 7.898 6.2845 7.853 6.301C7.76147 6.3382 7.68512 6.40513 7.63625 6.491C7.59075 6.56875 7.57625 6.6585 7.585 6.738C7.59508 6.81308 7.61773 6.88594 7.652 6.9535C7.7105 7.07025 7.78625 7.16675 7.8655 7.25425C7.79225 7.3355 7.719 7.45825 7.4665 7.628C7.012 7.934 6.7995 7.9175 6.7995 7.9175C6.77992 7.84338 6.75791 7.76992 6.7335 7.69725C6.67825 7.55075 6.6305 7.403 6.49725 7.255C6.45555 7.21111 6.40443 7.17726 6.34775 7.156C6.27954 7.13646 6.207 7.13812 6.13975 7.16075C6.0015 7.20275 5.93075 7.32575 5.91575 7.42075C5.8815 7.61925 5.95725 7.80525 6.10175 7.9475C6.24325 8.07675 6.4235 8.13575 6.6125 8.1485C6.64825 8.2975 6.68075 8.44675 6.7185 8.59175L6.91125 9.38375C7.08364 10.0901 7.25973 10.7955 7.4395 11.5H6.628C6.3375 10.4818 5.72325 9.5195 5.07575 8.50525C4.301 7.2895 3.5 6.0325 3.5 4.8965C3.5 2.748 5.5185 1 8 1C10.4815 1 12.5 2.748 12.5 4.8965C12.5 6.033 11.6983 7.29025 10.9228 8.50625ZM9.44975 7.916C9.4645 7.86475 9.4795 7.81275 9.497 7.76275C9.54425 7.631 9.6045 7.48775 9.6865 7.402C9.706 7.38 9.726 7.37125 9.73625 7.3655C9.73625 7.3665 9.76075 7.3625 9.77625 7.37025C9.804 7.37725 9.8305 7.406 9.84075 7.46125C9.86075 7.56825 9.81 7.706 9.71825 7.79225C9.65375 7.8535 9.55425 7.8965 9.44975 7.916ZM6.54975 7.916C6.44525 7.8965 6.34575 7.8535 6.28175 7.792C6.1895 7.70575 6.13925 7.568 6.15925 7.461C6.1695 7.4055 6.19575 7.377 6.22375 7.37C6.2395 7.3625 6.26375 7.36625 6.26375 7.36525C6.2735 7.371 6.294 7.38 6.3125 7.40175C6.395 7.48775 6.455 7.63075 6.5025 7.7625C6.52 7.81275 6.53525 7.86475 6.54975 7.916ZM6.63 12.3892H6.38V13.2893H6.572V14.0895H6.764V14.8897H7.0855C7.23675 15.247 7.58675 15.5 8 15.5C8.413 15.5 8.76275 15.247 8.9145 14.8892H9.24625V14.084L9.27425 14.0737L9.438 14.0138V13.283L9.45425 13.2778L9.6295 13.2227V12.389L6.63 12.3892Z" fill="#F1F5F9"/>
</svg>
