<svg width="16" height="16" viewBox="0 0 16 16" fill="none" xmlns="http://www.w3.org/2000/svg">
<path fill-rule="evenodd" clip-rule="evenodd" d="M13.8666 6.00033V4.46699H6.80259L5.55325 3.46699H2.13325V6.00033H13.8666ZM13.8666 6.80033H2.13325V12.5337H13.8666V6.80033ZM1.99992 2.66699H5.83325L7.08325 3.66699H13.9999C14.1767 3.66699 14.3463 3.73723 14.4713 3.86225C14.5963 3.98728 14.6666 4.15685 14.6666 4.33366V12.667C14.6666 12.8438 14.5963 13.0134 14.4713 13.1384C14.3463 13.2634 14.1767 13.3337 13.9999 13.3337H1.99992C1.82311 13.3337 1.65354 13.2634 1.52851 13.1384C1.40349 13.0134 1.33325 12.8438 1.33325 12.667V3.33366C1.33325 3.15685 1.40349 2.98728 1.52851 2.86225C1.65354 2.73723 1.82311 2.66699 1.99992 2.66699Z" fill="#F1F5F9"/>
</svg>
