<svg width="40" height="40" viewBox="0 0 40 40" fill="none" xmlns="http://www.w3.org/2000/svg">
<path d="M19.9969 16.8823L35.6416 20.7663C38.3642 19.7036 40 18.3486 40 16.8823V10.635C40 7.19129 31.0428 4.3916 19.9969 4.3916C8.95211 4.3916 0 7.19137 0 10.635V16.8823C0 20.3273 8.95156 23.1233 19.9962 23.1233L19.9969 16.8823ZM0 23.1233V29.3668C0 32.813 8.95211 35.6077 19.9969 35.6077L19.9962 29.3661C8.95156 29.3661 0 26.5696 0 23.1233ZM35.6403 27.0111L19.9962 23.1233V29.3661L35.6403 33.2546C38.3641 32.1868 40 30.8368 40 29.3655V23.1233C40.0013 24.5946 38.3641 25.9446 35.6403 27.0111Z" fill="#F1F5F9"/>
</svg>
