<svg width="40" height="40" viewBox="0 0 40 40" fill="none" xmlns="http://www.w3.org/2000/svg">
<path d="M28.0337 15.2716L27.7968 15.1422C27.9215 15.4435 27.9621 15.7004 27.9577 15.93C28.0044 15.741 28.0304 15.5475 28.0352 15.3528C28.0389 15.5881 28.0102 15.8227 27.9499 16.05L27.9577 15.93C27.8904 16.2131 27.777 16.4828 27.6221 16.7291L27.6955 16.651C26.7955 18.1569 24.3402 18.486 23.1293 16.9307C21.1855 14.4338 23.1693 11.7419 23.4471 9.09785C23.7943 5.7841 21.7165 2.56691 19.1399 0.641602C20.559 2.93723 18.6893 5.97473 17.1934 7.67223C15.7427 9.31879 13.979 10.6932 12.3777 12.1882C10.658 13.7954 9.00366 15.4866 7.59054 17.3719C4.76273 21.145 3.03116 25.8907 4.30366 30.5985C5.57491 35.3035 9.64991 38.2982 14.2518 39.3569C11.9302 38.3532 9.75773 35.8029 9.75273 33.1935C9.74679 30.3479 11.5496 27.9325 13.7924 26.3454C13.5227 27.3638 13.3755 28.2954 14.0434 29.2063C14.6646 30.0535 15.7521 30.4647 16.7787 30.2413C19.1784 29.7166 19.288 27.0788 17.8659 25.5419C16.4593 24.0207 15.0987 22.301 15.6337 20.0941C15.9018 18.9879 16.5812 17.9522 17.4421 17.211C16.7802 18.9494 18.6599 20.6638 19.898 21.5169C22.0468 22.9985 24.403 24.1185 26.3787 25.8547C28.4562 27.6797 29.9909 30.1472 29.6808 33.0097C29.3446 36.1119 26.8796 38.2697 24.1149 39.3588C29.9574 38.0688 35.9955 33.5341 36.1184 27.0538C36.2212 21.7232 32.5643 17.6204 28.0337 15.2716Z" fill="#F1F5F9"/>
</svg>
