<svg width="46" height="46" viewBox="0 0 46 46" fill="none" xmlns="http://www.w3.org/2000/svg">
<path d="M41.8024 19.6461C41.6874 19.5695 40.7291 18.822 38.6591 18.822C38.1224 18.822 37.5858 18.8795 37.0491 18.9753C36.6466 16.292 34.4041 14.9311 34.3083 14.8736L33.7524 14.5478L33.4074 15.0653C32.9474 15.7553 32.5833 16.5411 32.4299 17.3461C32.0466 18.8795 32.2766 20.3361 33.0624 21.582C32.1233 22.1186 30.5899 22.2528 30.2641 22.2528H5.02158C4.36992 22.2528 3.83325 22.7895 3.83325 23.4603C3.83325 25.6645 4.17825 27.8686 4.94492 29.9386C5.80742 32.2195 7.11075 33.9061 8.77825 34.9411C10.6566 36.0911 13.7424 36.7428 17.2499 36.7428C18.7641 36.7428 20.3358 36.6086 21.8883 36.3211C24.0349 35.9378 26.1049 35.1903 28.0024 34.0978C29.5739 33.1992 30.9805 32.0389 32.1616 30.667C34.1741 28.4245 35.3624 25.8753 36.2249 23.6711H36.5891C38.7741 23.6711 40.1349 22.7895 40.8824 22.042C41.3808 21.582 41.7449 21.0261 42.0133 20.3745L42.1666 19.9145L41.8024 19.6461ZM7.37909 21.5436H10.7524C10.9058 21.5436 11.0591 21.4095 11.0591 21.237V18.2086C11.0591 18.0553 10.9249 17.902 10.7524 17.902H7.37909C7.20658 17.902 7.07242 18.0361 7.07242 18.2086V21.237C7.09159 21.4095 7.20658 21.5436 7.37909 21.5436ZM12.0366 21.5436H15.4099C15.5633 21.5436 15.7166 21.4095 15.7166 21.237V18.2086C15.7166 18.0553 15.5824 17.902 15.4099 17.902H12.0366C11.8641 17.902 11.7299 18.0361 11.7299 18.2086V21.237C11.7491 21.4095 11.8641 21.5436 12.0366 21.5436ZM16.7708 21.5436H20.1249C20.3166 21.5436 20.4508 21.4095 20.4508 21.237V18.2086C20.4508 18.0553 20.3358 17.902 20.1249 17.902H16.7708C16.6174 17.902 16.4833 18.0361 16.4833 18.2086V21.237C16.4833 21.4095 16.5983 21.5436 16.7708 21.5436ZM21.4474 21.5436H24.8399C24.9933 21.5436 25.1274 21.4095 25.1274 21.237V18.2086C25.1274 18.0553 25.0124 17.902 24.8399 17.902H21.4474C21.2941 17.902 21.1599 18.0361 21.1599 18.2086V21.237C21.1599 21.4095 21.2941 21.5436 21.4474 21.5436ZM12.0366 17.2503H15.4099C15.5633 17.2503 15.7166 17.0778 15.7166 16.9053V13.8961C15.7166 13.7236 15.5824 13.5895 15.4099 13.5895H12.0366C11.8641 13.5895 11.7299 13.7045 11.7299 13.8961V16.9053C11.7491 17.0778 11.8641 17.2503 12.0366 17.2503ZM16.7708 17.2503H20.1249C20.3166 17.2503 20.4508 17.0778 20.4508 16.9053V13.8961C20.4508 13.7236 20.3358 13.5895 20.1249 13.5895H16.7708C16.6174 13.5895 16.4833 13.7045 16.4833 13.8961V16.9053C16.4833 17.0778 16.5983 17.2503 16.7708 17.2503ZM21.4474 17.2503H24.8399C24.9933 17.2503 25.1274 17.0778 25.1274 16.9053V13.8961C25.1274 13.7236 24.9933 13.5895 24.8399 13.5895H21.4474C21.2941 13.5895 21.1599 13.7045 21.1599 13.8961V16.9053C21.1599 17.0778 21.2941 17.2503 21.4474 17.2503ZM21.4474 12.8803H24.8399C24.9933 12.8803 25.1274 12.7461 25.1274 12.5736V9.58365C25.1274 9.39198 24.9933 9.25781 24.8399 9.25781H21.4474C21.2941 9.25781 21.1599 9.37281 21.1599 9.58365V12.5736C21.1599 12.727 21.2941 12.8803 21.4474 12.8803ZM26.1624 21.5436H29.5358C29.7083 21.5436 29.8424 21.4095 29.8424 21.237V18.2086C29.8424 18.0553 29.7083 17.902 29.5358 17.902H26.1624C26.0091 17.902 25.8749 18.0361 25.8749 18.2086V21.237C25.8749 21.4095 26.0091 21.5436 26.1624 21.5436Z" fill="#F1F5F9"/>
</svg>
