<svg width="30" height="40" viewBox="0 0 30 40" fill="none" xmlns="http://www.w3.org/2000/svg">
<path d="M3 0H4.80333V1.78167H6.45333V0H8.25667V5.39333H6.45333V3.58833H4.80333V5.39333H3.00167L3 0ZM10.6267 1.78833H9.04V0H14.0183V1.78833H12.43V5.39333H10.6267V1.78833ZM14.8083 0H16.6883L17.845 1.895L19 0H20.88V5.39333H19.085V2.72L17.845 4.63833H17.8133L16.5717 2.72167V5.39333H14.8083V0ZM21.7767 0H23.5817V3.61167H26.115V5.395H21.7767V0Z" fill="#F1F5F9"/>
<path fill-rule="evenodd" clip-rule="evenodd" d="M3.41 36.7863L0 7.86133H30L26.5883 36.783L14.9833 39.9997L3.41 36.7863ZM10.305 20.953L9.98167 17.3197H23.5567L23.8733 13.773H6.10667L7.06333 24.5013H19.3583L18.9467 29.1013L14.99 30.1713H14.9867L11.0367 29.1047L10.7833 26.2763H7.22L7.71667 31.8463L14.9833 33.863L22.2617 31.8463L23.1483 21.9063L23.235 20.9547L10.305 20.953Z" fill="#F1F5F9"/>
</svg>
