<svg width="40" height="40" viewBox="0 0 40 40" fill="none" xmlns="http://www.w3.org/2000/svg">
<mask id="mask0_706_217" style="mask-type:luminance" maskUnits="userSpaceOnUse" x="0" y="0" width="40" height="40">
<path d="M0 0H40V40H0V0Z" fill="white"/>
</mask>
<g mask="url(#mask0_706_217)">
<path d="M22.1683 9.335C21.1217 6.78833 21.2683 3.92333 22.78 1.61833L23.91 0C21.82 3.91667 23.81 8.72667 27.01 11.2483C27.8657 11.9195 28.8204 12.4536 29.84 12.8317C30.1133 12.9317 30.4233 13.0383 30.7067 13.11C34.2833 14.01 37.1983 13.3883 38.9333 10.795C38.88 10.8772 38.8106 10.9994 38.725 11.1617C37.9517 12.595 35.6883 16.79 29.125 15.4733C29 15.4483 28.88 15.4067 28.76 15.3683L28.6533 15.3317L28.5767 15.3067L28.47 15.2717L28.18 15.1667C25.5383 14.16 23.2733 12.04 22.1683 9.335Z" fill="#F1F5F9"/>
<path d="M13.5332 4.94362C10.9715 8.76862 11.1115 13.8903 13.1099 17.937C13.478 18.6907 13.9026 19.4155 14.3799 20.1053C14.7282 20.627 15.1115 21.2053 15.5599 21.6086C15.7454 21.8197 15.9371 22.0258 16.1348 22.227L16.2482 22.3436L16.2865 22.382C16.4854 22.5832 16.6893 22.7794 16.8982 22.9703L16.8999 22.972L16.9032 22.9753C17.1553 23.203 17.4138 23.4236 17.6782 23.637L17.7449 23.6903C17.9782 23.8781 18.2171 24.0597 18.4615 24.2353L18.4715 24.242L18.4832 24.2503C18.561 24.307 18.6404 24.362 18.7215 24.4153L18.8099 24.4753L18.9648 24.582C19.1393 24.6986 19.3165 24.8114 19.4965 24.9203L19.5465 24.9486L19.5715 24.9653C19.7646 25.0802 19.9596 25.1919 20.1565 25.3003L20.2082 25.327L20.2748 25.3636C20.3615 25.4114 20.4493 25.4581 20.5382 25.5036L20.5882 25.5286C20.846 25.6598 21.1072 25.7843 21.3715 25.902L21.4248 25.9236C21.6728 26.0331 21.9235 26.1364 22.1765 26.2336L22.2265 26.252C22.3976 26.3175 22.5698 26.3797 22.7432 26.4386L22.8299 26.4686L22.9765 26.517L23.1699 26.582C23.3515 26.6453 23.5332 26.707 23.7232 26.7403C36.9465 29.0136 39.9999 18.447 39.9999 18.447C37.2482 22.5603 31.9182 24.5236 26.2315 22.9903C25.9798 22.9212 25.7297 22.8462 25.4815 22.7653C25.4148 22.7453 25.3482 22.7231 25.2815 22.6986L25.2565 22.6903C25.0809 22.6313 24.9065 22.5691 24.7332 22.5036L24.7282 22.5003L24.4965 22.412C24.2876 22.3289 24.0803 22.2417 23.8749 22.1503L23.7815 22.1086C23.4537 21.9608 23.1312 21.8013 22.8149 21.6303L22.7449 21.5936L22.5449 21.487C22.3623 21.3848 22.1817 21.2792 22.0032 21.1703C21.6504 20.9554 21.3057 20.7275 20.9698 20.487C20.7271 20.3117 20.4887 20.1305 20.2549 19.9436L20.1965 19.8953L20.0949 19.812C17.6049 17.772 15.6315 14.9836 14.6949 11.8236C13.7115 8.54362 13.9232 4.86362 15.6265 1.87695L13.5332 4.94362Z" fill="#F1F5F9"/>
<path d="M2.53989 9.39488C-1.00011 14.6782 -0.560106 21.5532 2.14489 27.1665C2.196 27.2754 2.24878 27.3821 2.30323 27.4866L2.34323 27.5666L2.39323 27.6649C2.43516 27.7523 2.47962 27.8384 2.52656 27.9232L2.54823 27.9649L2.66489 28.1816L2.68989 28.2266C2.77323 28.3799 2.85934 28.5332 2.94823 28.6866L2.97656 28.7366C3.11044 28.9693 3.24992 29.1988 3.39489 29.4249L3.42489 29.4749L3.52323 29.6299C3.66212 29.8477 3.80656 30.0643 3.95656 30.2799V30.2816L3.96823 30.2965L4.00823 30.3516L4.04156 30.3982C4.17156 30.5816 4.30378 30.7638 4.43823 30.9449L4.58823 31.1416C4.91486 31.565 5.25276 31.9795 5.60156 32.3849L5.61156 32.3965L5.61989 32.4049L5.63156 32.4182C5.98543 32.8163 6.35115 33.2037 6.72823 33.5799L6.77823 33.6299L6.89656 33.7465C7.08545 33.9312 7.27771 34.1123 7.47323 34.2899L7.52823 34.3399L7.57156 34.3766C7.7801 34.5628 7.99123 34.7462 8.20489 34.9265L8.29823 35.0049C8.44045 35.1215 8.58378 35.2371 8.72823 35.3515L8.95656 35.5332C9.11656 35.6554 9.27712 35.7749 9.43823 35.8916L9.46489 35.9116L9.61489 36.0216L9.66156 36.0549C9.80823 36.1604 9.95656 36.2627 10.1066 36.3615L10.1299 36.3782L10.3299 36.5166C10.6082 36.699 10.8899 36.8763 11.1749 37.0482L11.2649 37.1015C11.5173 37.2505 11.7724 37.3949 12.0299 37.5349L12.1182 37.5832L12.2166 37.6366L12.5116 37.7949L12.5532 37.8149L12.6032 37.8399L12.6599 37.8682L12.7632 37.9216C12.9688 38.0227 13.1766 38.1227 13.3866 38.2215L13.4649 38.2565L13.5182 38.2815C14.0389 38.5191 14.5687 38.7359 15.1066 38.9315L15.1232 38.9366L15.1932 38.9632C15.5732 39.0998 15.9567 39.2265 16.3432 39.3432C16.5366 39.4082 16.7316 39.4715 16.9316 39.5099C34.0599 42.7532 39.0349 28.8265 39.0349 28.8265C34.8566 34.4766 27.4399 35.9682 20.4116 34.3082C20.1469 34.2449 19.8855 34.1687 19.6282 34.0799L19.4316 34.0182C19.1782 33.9371 18.9266 33.8521 18.6766 33.7632L18.5732 33.7249C18.3499 33.6427 18.1277 33.5571 17.9066 33.4682L17.7199 33.3916C17.4777 33.2916 17.2382 33.1882 17.0016 33.0816L16.9249 33.0482L16.8582 33.0149C16.6549 32.9201 16.4526 32.8228 16.2516 32.7232L16.1832 32.6899L16.0766 32.6366L15.7199 32.4482L15.6066 32.3882L15.4949 32.3282L15.2949 32.2182C15.106 32.1127 14.9182 32.0032 14.7316 31.8899L14.6599 31.8482L14.5432 31.7816C14.253 31.6026 13.9663 31.4181 13.6832 31.2282L13.6116 31.1782C12.9011 30.7028 12.2193 30.1858 11.5699 29.6299C11.3717 29.4624 11.1761 29.2918 10.9832 29.1182L10.9566 29.0932C10.7031 28.8603 10.4542 28.6225 10.2099 28.3799C10.0687 28.2405 9.92981 28.0988 9.79323 27.9549L9.73656 27.8982L9.62823 27.7849C9.45003 27.5956 9.275 27.4034 9.10323 27.2082L9.09323 27.1982L9.08989 27.1932C8.91323 26.9921 8.73989 26.7877 8.56989 26.5799L8.43323 26.4116C8.25876 26.1952 8.08818 25.9757 7.92156 25.7532C7.77489 25.5543 7.63045 25.3549 7.48823 25.1549C3.58823 19.6316 2.18656 12.0115 5.30489 5.75488L2.53989 9.39488Z" fill="#F1F5F9"/>
</g>
</svg>
