<svg width="40" height="40" viewBox="0 0 40 40" fill="none" xmlns="http://www.w3.org/2000/svg">
<path d="M2.5 2.5V37.5H37.5V2.5H2.5ZM21.5475 29.7962C21.5475 33.2025 19.5475 34.7575 16.6337 34.7575C14.0013 34.7575 12.4775 33.3988 11.6963 31.75L14.3763 30.1325C14.8925 31.0463 15.3612 31.82 16.4937 31.82C17.5712 31.82 18.2588 31.3975 18.2588 29.75V18.57H21.5475V29.7962ZM29.3275 34.7575C26.2725 34.7575 24.2962 33.305 23.335 31.3975L26.015 29.8512C26.7188 31 27.64 31.8513 29.2575 31.8513C30.6163 31.8513 31.4925 31.1712 31.4925 30.2262C31.4925 29.1012 30.6012 28.7025 29.0938 28.0387L28.2738 27.6875C25.8988 26.68 24.3287 25.4062 24.3287 22.7262C24.3287 20.2575 26.2113 18.3825 29.1413 18.3825C31.235 18.3825 32.735 19.1088 33.8138 21.015L31.2512 22.6562C30.6887 21.6488 30.0787 21.25 29.1337 21.25C28.1737 21.25 27.5638 21.86 27.5638 22.6562C27.5638 23.6413 28.1737 24.0387 29.5875 24.6562L30.4075 25.0075C33.205 26.2025 34.775 27.43 34.775 30.1787C34.775 33.1325 32.4462 34.7562 29.3287 34.7562L29.3275 34.7575Z" fill="#F1F5F9"/>
</svg>
