<svg width="40" height="40" viewBox="0 0 40 40" fill="none" xmlns="http://www.w3.org/2000/svg">
<path d="M36.1667 10.8829C36.1833 10.9163 36.1833 10.9663 36.1833 11.0163V18.1663C36.1833 18.3329 36.0833 18.5329 35.9333 18.6163L29.9167 22.0829V28.9329C29.9167 29.1163 29.8333 29.2829 29.6667 29.3829L17.1333 36.5996C17.1 36.6163 17.0667 36.6663 17.0333 36.6663H16.6667C16.6667 36.6663 16.6667 36.6163 16.6 36.5996L4.06665 29.3829C3.99039 29.3351 3.92748 29.2688 3.88376 29.1901C3.84005 29.1114 3.81696 29.023 3.81665 28.9329V7.49961C3.81665 7.41628 3.81665 7.36628 3.83332 7.33294C3.83332 7.31628 3.84998 7.29961 3.84998 7.28294C3.84998 7.24961 3.86665 7.23294 3.88332 7.19961C3.88332 7.18294 3.89998 7.16628 3.91665 7.14961L3.96665 7.09961L4.01665 7.04961C4.03332 7.03294 4.04998 7.01628 4.06665 7.01628L10.3333 3.39961C10.5 3.33294 10.7 3.33294 10.8333 3.39961L17.1333 7.01628C17.15 7.03294 17.1667 7.03294 17.1833 7.04961L17.2333 7.09961L17.2833 7.14961C17.3 7.16628 17.3167 7.18294 17.3167 7.19961C17.3333 7.23294 17.35 7.24961 17.35 7.28294C17.35 7.29961 17.3667 7.31628 17.3667 7.33294C17.3833 7.38294 17.3833 7.41628 17.3833 7.49961V20.8329L22.6167 17.8663V11.0163C22.6167 10.9663 22.6167 10.9163 22.6333 10.8829L22.65 10.8329C22.65 10.8329 22.6667 10.7829 22.6833 10.7496C22.6833 10.7329 22.7 10.7163 22.7167 10.6996L22.7667 10.6496L22.8167 10.5996C22.8333 10.5829 22.85 10.5663 22.8667 10.5663L29.1667 6.94961C29.3 6.84961 29.5 6.84961 29.6667 6.94961L35.9333 10.5663C35.95 10.5663 35.9667 10.5829 35.9833 10.5996L36.0333 10.6496L36.0833 10.6996C36.1 10.7163 36.1 10.7329 36.1167 10.7496C36.1333 10.7829 36.1333 10.8329 36.15 10.8329C36.1667 10.8329 36.1667 10.8329 36.1667 10.8829ZM35.15 17.8663V11.9163L29.9167 14.9163V20.8329L35.15 17.8663ZM28.8833 28.6329V22.6663L17.3833 29.2329V35.2496L28.8833 28.6329ZM4.84998 8.33294V28.6329L16.35 35.2496V29.2329L10.35 25.8329H10.3333C10.3167 25.8329 10.3 25.8329 10.2833 25.7829C10.2667 25.7829 10.25 25.7663 10.2333 25.7496L10.1833 25.6996C10.1667 25.6829 10.1667 25.6663 10.15 25.6496C10.1333 25.6163 10.1333 25.5996 10.1167 25.5829C10.1167 25.5496 10.1 25.5329 10.1 25.5163C10.0833 25.4996 10.0833 25.4663 10.0833 25.4496V11.3663L4.84998 8.33294ZM10.6 4.46628L5.38332 7.49961L10.6 10.4663L15.8333 7.49961L10.6 4.46628ZM16.35 21.4663V8.33294L11.1167 11.3663V24.4829L16.35 21.4663ZM29.4 7.99961L24.1667 11.0163L29.4 14.0163L34.6167 11.0163L29.4 7.99961ZM28.8833 14.9163L23.65 11.9163V17.8663L28.8833 20.8329V14.9163ZM16.8667 28.3329L28.3333 21.7663L23.1333 18.7663L11.6667 25.3829L16.8667 28.3329Z" fill="#F1F5F9"/>
</svg>
