<svg width="40" height="40" viewBox="0 0 40 40" fill="none" xmlns="http://www.w3.org/2000/svg">
<path d="M11.6862 17.0117H10.11L9.25125 21.4255H10.6512C11.5746 21.4255 12.2646 21.2501 12.7213 20.8992C13.17 20.5542 13.4762 19.968 13.6325 19.1542C13.7875 18.373 13.7162 17.8192 13.4312 17.4942C13.1388 17.1742 12.5571 17.0126 11.6862 17.0117ZM20 9.48047C8.95125 9.48047 0 14.1942 0 20.0005C0 25.8067 8.95125 30.5205 20 30.5205C31.0487 30.5205 40 25.8067 40 20.0005C40 14.1942 31.0487 9.48047 20 9.48047ZM14.5638 21.9017C14.131 22.3176 13.6102 22.6307 13.04 22.818C12.48 22.9942 11.765 23.0917 10.8988 23.0917H8.925L8.385 25.8917H6.08625L8.1375 15.3517H12.5513C13.8804 15.3509 14.8504 15.698 15.4613 16.393C16.0675 17.0892 16.2563 18.0667 16.0075 19.3167C15.9148 19.8118 15.7439 20.289 15.5013 20.7305C15.2524 21.1682 14.9355 21.5635 14.5625 21.9017H14.5638ZM21.2762 23.0917L22.1813 18.4255C22.2854 17.8971 22.2458 17.5342 22.0625 17.3367C21.8858 17.1467 21.5042 17.0513 20.9175 17.0505H19.1012L17.93 23.0917H15.645L17.695 12.5455H19.9738L19.4275 15.3517H21.4587C22.7425 15.3517 23.62 15.573 24.1025 16.0155C24.5912 16.4655 24.7337 17.1867 24.5462 18.1842L23.5875 23.093L21.2762 23.0917ZM33.9313 19.3167C33.8406 19.8124 33.6696 20.2899 33.425 20.7305C33.1784 21.1676 32.8641 21.563 32.4938 21.9017C32.0567 22.315 31.5345 22.6278 30.9637 22.818C30.4037 22.9942 29.6875 23.0917 28.8225 23.0917H26.8563L26.31 25.8917H24.0112L26.0625 15.3517H30.4762C31.805 15.3517 32.775 15.6967 33.3862 16.4005C33.9925 17.0905 34.18 18.0667 33.9313 19.3167ZM29.61 17.0117H28.04L27.1813 21.4255H28.575C29.505 21.4255 30.195 21.2501 30.645 20.8992C31.1 20.5542 31.4062 19.968 31.5637 19.1542C31.7179 18.3726 31.6479 17.8192 31.3538 17.4942C31.0688 17.1755 30.4825 17.0117 29.61 17.0117Z" fill="#F1F5F9"/>
</svg>
