<svg width="36" height="36" viewBox="0 0 36 36" fill="none" xmlns="http://www.w3.org/2000/svg">
<path d="M6.52091 2.40039H1.20011C0.988967 2.40033 0.781544 2.45598 0.598786 2.56172C0.416028 2.66746 0.264406 2.81956 0.159229 3.00264C0.0540529 3.18573 -0.000953994 3.39332 -0.000237224 3.60446C0.000479545 3.81561 0.0568946 4.02282 0.163312 4.20519L16.9633 33.0052C17.069 33.1865 17.2203 33.3369 17.4022 33.4414C17.5841 33.546 17.7903 33.601 18.0001 33.601C18.2099 33.601 18.4161 33.546 18.598 33.4414C18.7799 33.3369 18.9313 33.1865 19.0369 33.0052L35.8369 4.20519C35.9433 4.02282 35.9997 3.81561 36.0005 3.60446C36.0012 3.39332 35.9462 3.18573 35.841 3.00264C35.7358 2.81956 35.5842 2.66746 35.4014 2.56172C35.2187 2.45598 35.0113 2.40033 34.8001 2.40039H29.4793L18.0001 21.5332L6.52091 2.40039Z" fill="#F1F5F9"/>
<path d="M26.6807 2.40039H19.6559L17.9999 5.71719L16.3415 2.40039H9.31909L17.9999 16.8676L26.6807 2.40039Z" fill="#F1F5F9"/>
</svg>
