<svg width="17" height="23" viewBox="0 0 17 23" fill="none" xmlns="http://www.w3.org/2000/svg">
<path d="M8.13818 1.12793C9.60835 1.12793 10.914 1.38846 12.0405 1.92676C13.1679 2.45608 14.0615 3.20041 14.7017 4.16406C15.3447 5.13219 15.6616 6.23855 15.6616 7.46582C15.6616 8.27744 15.4996 9.07522 15.1821 9.85645C14.8663 10.6496 14.3148 11.5027 13.5503 12.4121L13.5493 12.4131C12.7847 13.3162 11.717 14.3896 10.354 15.6299L8.22314 17.7178H15.9214V22.1279H0.855957V18.4033L1.01611 18.2549L8.03955 11.752C8.62652 11.1836 9.11515 10.6766 9.50635 10.2295L9.5083 10.2266C9.8959 9.79051 10.1784 9.376 10.3657 8.98438C10.544 8.60531 10.6343 8.19413 10.6343 7.74512C10.6342 7.24523 10.5217 6.84325 10.3169 6.51855L10.3149 6.51562C10.1019 6.17288 9.81359 5.91178 9.43994 5.72754L9.43408 5.72559C9.05694 5.5344 8.61948 5.43265 8.10986 5.43262C7.57443 5.43262 7.13226 5.54057 6.76807 5.73828C6.40549 5.93518 6.12863 6.21417 5.93018 6.58496C5.73265 6.95417 5.62355 7.41199 5.62354 7.97656V8.47656H0.663574V7.97656C0.663592 6.60797 0.974682 5.39352 1.61475 4.35254C2.25113 3.31763 3.14296 2.51951 4.27588 1.95996C5.40866 1.40055 6.70023 1.12797 8.13818 1.12793Z" stroke="#EFE0AE"/>
</svg>
