<svg width="18" height="23" viewBox="0 0 18 23" fill="none" xmlns="http://www.w3.org/2000/svg">
<path d="M8.59961 1.22754C10.0035 1.22759 11.2561 1.48302 12.3438 2.00977C13.4198 2.53087 14.2732 3.244 14.8857 4.1543H14.8867C15.5087 5.06288 15.8163 6.0862 15.8105 7.20898L15.8066 7.43359C15.7679 8.54304 15.3889 9.5015 14.6582 10.2803L14.6592 10.2812C14.2491 10.722 13.7725 11.0715 13.2354 11.335C14.0507 11.6193 14.7361 12.047 15.2754 12.6309C16.1247 13.5373 16.5381 14.6706 16.5322 15.9932L16.5293 16.2188C16.4937 17.3433 16.142 18.3595 15.4727 19.252L15.4717 19.251C14.7726 20.1915 13.8161 20.9207 12.6211 21.4443C11.4193 21.9709 10.056 22.2275 8.54199 22.2275C7.06498 22.2275 5.73021 21.9734 4.54785 21.4531L4.54492 21.4521C3.37433 20.9274 2.43156 20.1984 1.73438 19.2598L1.73145 19.2559C1.03357 18.2997 0.676886 17.1971 0.65625 15.9658L0.647461 15.458H5.77441L5.7998 15.9307C5.81967 16.3031 5.93829 16.6191 6.15332 16.8945L6.24414 16.998C6.46562 17.2336 6.75204 17.428 7.11523 17.5762C7.52821 17.7446 8.00445 17.834 8.55176 17.834C9.11995 17.834 9.60077 17.7334 10.0059 17.5469C10.4154 17.3583 10.7194 17.1056 10.9355 16.7939C11.1455 16.491 11.2549 16.139 11.2549 15.7197C11.2548 15.3005 11.1396 14.9457 10.9141 14.6367L10.9092 14.6289C10.6868 14.3127 10.355 14.0499 9.88672 13.8516L9.88477 13.8506C9.42907 13.6554 8.86545 13.5488 8.18066 13.5488H5.86523V9.52637H8.18066C8.74384 9.52637 9.21985 9.42808 9.61914 9.24707L9.62109 9.24609C10.0316 9.06244 10.3296 8.81883 10.5371 8.52246C10.739 8.22789 10.8466 7.88026 10.8467 7.45996C10.8467 7.05566 10.7504 6.72316 10.5732 6.44531L10.5674 6.43652C10.3915 6.14841 10.1418 5.91908 9.80176 5.74902L9.79883 5.74707C9.4694 5.57984 9.0678 5.48828 8.58008 5.48828C8.08451 5.4883 7.64386 5.57785 7.25098 5.75L7.24512 5.75195C6.85538 5.91746 6.55743 6.14847 6.33594 6.44043C6.12367 6.72026 6.0056 7.0506 5.99023 7.4502L5.97168 7.93066H1.03711L1.0459 7.42285C1.06653 6.2053 1.41655 5.11561 2.10156 4.17188C2.69332 3.3567 3.46152 2.7021 4.39648 2.20703L4.80762 2.00488C5.93993 1.48306 7.20734 1.22754 8.59961 1.22754Z" stroke="#EFE0AE"/>
</svg>
