<svg width="18" height="22" viewBox="0 0 18 22" fill="none" xmlns="http://www.w3.org/2000/svg">
<path d="M15.9199 0.5V4.91016H7.24902L6.91113 8.16992C7.16776 7.98952 7.45273 7.82765 7.76465 7.68457C8.53777 7.32993 9.39349 7.15728 10.3232 7.15723C11.5931 7.15723 12.7436 7.4568 13.7598 8.06641C14.7682 8.6715 15.5647 9.50418 16.1455 10.5547H16.1465C16.7324 11.6081 17.0148 12.8108 17.0088 14.1475L17.0059 14.4111C16.9729 15.7179 16.6442 16.902 16.0117 17.9521C15.3461 19.0615 14.4144 19.9332 13.2275 20.5645L13.2266 20.5654C12.0384 21.1941 10.6705 21.5 9.13867 21.5C7.71502 21.5 6.42646 21.2379 5.28418 20.7012L5.2832 20.7002C4.15286 20.1658 3.24232 19.4218 2.56543 18.4658C1.88163 17.5 1.52781 16.3938 1.5 15.1631L1.48828 14.6523H6.51758L6.54492 15.123C6.5816 15.7459 6.83559 16.2336 7.32129 16.6201C7.82304 17.0193 8.42043 17.2246 9.13867 17.2246C9.71792 17.2246 10.2077 17.097 10.623 16.8574C11.0495 16.6086 11.3793 16.2687 11.6182 15.8291L11.6191 15.8271C11.8626 15.3836 11.9912 14.8639 11.9912 14.2559C11.9912 13.6354 11.8597 13.1122 11.6123 12.6709L11.6094 12.666C11.3639 12.2189 11.0277 11.8749 10.5947 11.626C10.1642 11.3784 9.66311 11.2462 9.07812 11.2402C8.57189 11.2406 8.07867 11.3441 7.59473 11.5547C7.12371 11.7625 6.77823 12.0356 6.53613 12.3652L6.35156 12.6162L6.04492 12.5615L2.33594 11.8965L1.88477 11.8164L1.92578 11.3604L2.86035 0.955078L2.90137 0.5H15.9199Z" stroke="#EFE0AE"/>
</svg>
